<svg width="347" height="143" viewBox="0 0 347 143" fill="none" xmlns="http://www.w3.org/2000/svg">
<path d="M345.388 74.7776C344.368 74.7776 343.144 75.0204 342.328 73.8064C342.124 73.5637 341.716 73.3209 341.308 73.0781C341.716 72.8353 341.92 72.5925 342.328 72.5925C342.736 72.3497 342.736 72.107 342.328 71.8642C341.308 71.6214 341.104 70.893 341.104 69.9219C340.9 67.4941 340.084 66.5229 337.84 66.0374C337.84 65.5518 337.432 65.309 337.024 65.0662C336.616 64.8234 336.208 64.3379 335.8 64.0951C335.596 63.8523 335.596 63.6095 335.8 63.3667C336.004 63.3667 336.004 63.1239 336.208 63.1239C336.616 62.8812 337.228 62.8812 337.636 62.6384C337.228 61.6672 336.616 62.1528 336.004 62.1528C335.596 62.1528 335.188 61.91 334.983 61.91C334.779 61.91 334.575 60.6961 334.983 60.6961C335.392 60.4533 335.8 60.2105 336.004 60.2105C336.82 60.2105 337.228 59.725 337.228 58.7538C337.228 58.0255 337.432 57.7827 338.044 57.2971C339.064 56.5688 340.288 56.0832 341.308 56.326C341.308 55.8404 341.716 55.5976 341.92 55.3548C342.736 54.8693 342.736 54.6265 342.328 54.1409C341.716 53.6553 341.308 53.1698 340.492 53.1698C340.084 53.1698 339.472 52.6842 339.676 52.4414C339.88 50.7419 339.064 50.2564 338.044 49.7708C337.228 49.2852 337.432 47.5857 336.412 47.343C336.412 47.1002 336.616 46.6146 336.616 46.6146C337.228 46.3718 337.84 46.3718 338.656 46.3718C339.268 46.3718 339.676 45.8862 339.676 45.1579C339.676 44.1868 339.88 43.2156 339.268 42.4873C338.86 42.0017 338.656 41.0306 338.248 40.545C337.84 39.8166 338.044 39.3311 338.452 38.8455C338.656 38.6027 338.656 38.3599 338.452 38.1171C338.452 37.8744 337.432 37.8744 337.432 38.1171C337.228 39.5739 336.208 39.5739 335.596 40.3022C335.188 40.7878 334.983 40.545 334.575 40.0594C333.963 39.5739 333.555 38.8455 334.167 37.8744C334.983 36.9032 334.575 35.6893 334.575 34.7182C334.575 34.2326 334.167 33.747 333.759 33.747C333.147 33.747 332.739 33.747 332.127 33.747C332.127 33.0187 332.127 32.5331 332.127 31.8048C331.515 31.8048 330.903 31.8048 330.087 31.562C329.679 31.562 329.679 31.3192 329.883 30.8336C330.087 30.5908 330.495 29.8625 329.883 29.8625C328.659 29.6197 328.659 28.8913 328.659 27.9202C328.251 27.9202 327.843 27.9202 327.435 27.9202C327.027 27.9202 326.619 27.6774 326.415 27.4346C326.823 27.1919 327.027 26.9491 327.435 26.7063C327.639 26.7063 327.639 26.4635 327.639 26.4635C327.639 26.4635 327.639 26.2207 327.435 26.2207C327.231 26.2207 327.027 25.9779 326.619 25.9779C326.007 25.9779 325.191 25.9779 324.579 25.9779C324.171 25.9779 323.763 25.7351 323.763 25.2496C323.559 24.5212 323.763 23.3073 324.375 23.3073C325.191 23.0645 325.599 22.5789 325.191 21.6078C324.783 20.8795 324.579 20.1511 324.579 19.4228C324.579 19.18 324.375 18.9372 324.375 18.4516C323.967 18.6944 323.559 18.9372 323.559 19.4228C323.355 20.1511 323.151 20.8795 323.151 21.6078C323.151 21.8506 322.947 21.8506 322.947 21.8506L322.743 21.6078C322.539 20.3939 321.519 19.4228 321.723 18.2088C321.723 17.4805 321.315 17.2377 321.111 17.7233C320.295 18.6944 319.071 19.4228 319.479 21.365C319.479 21.6078 319.071 22.0934 318.867 22.5789C318.255 23.3073 317.439 23.3073 317.235 22.5789C317.235 22.3362 317.235 22.3362 317.031 22.0934C316.419 20.8795 315.807 19.6655 316.827 18.2088C317.235 17.4805 316.623 17.7233 316.215 17.4805C314.991 16.7521 315.195 16.7521 315.399 14.8098C315.603 13.5959 314.991 12.382 314.379 11.8964C313.563 12.6248 312.95 12.1392 312.542 11.4109C312.338 11.1681 311.93 10.6825 311.522 11.1681C311.114 11.6537 310.91 11.1681 310.502 10.9253C310.094 10.6825 309.89 11.1681 309.482 11.4109C309.074 11.6537 308.666 11.6537 308.462 11.1681C308.258 10.9253 307.85 10.6825 307.442 11.1681C307.034 11.6537 306.626 12.1392 306.218 12.382C305.81 12.8676 305.606 13.3531 304.994 13.3531C303.77 13.3531 302.546 13.1104 301.322 13.1104C300.914 13.1104 300.914 12.6248 301.118 12.382C301.118 12.1392 301.322 11.6537 301.526 11.6537C301.934 11.4109 302.546 11.4109 302.75 11.6537C303.77 12.6248 304.586 11.8964 305.606 11.4109C305.81 11.4109 305.81 11.1681 305.81 11.1681C305.606 11.1681 305.606 10.9253 305.402 10.9253C302.954 10.1969 300.302 11.4109 297.854 10.1969C297.038 11.4109 296.222 10.6825 295.406 9.95416C295.202 9.71138 294.794 9.95416 294.59 9.95416C292.754 9.95416 291.121 9.95416 289.285 9.95416C288.469 9.95416 288.061 9.71138 287.449 9.22581C286.837 8.74024 286.429 8.98302 286.225 9.71138C286.021 10.6825 285.613 11.1681 285.001 11.6537C284.797 11.8964 284.389 11.8964 284.185 11.8964C283.573 11.6537 283.981 11.1681 284.185 10.9253C284.593 9.71138 284.389 9.22581 283.573 9.22581C282.553 9.22581 281.737 9.22581 280.717 9.22581C279.697 9.22581 278.677 9.46859 277.861 9.22581C275.617 8.25467 273.373 7.28353 270.925 7.28353C269.7 6.06961 268.272 6.55518 267.048 6.31239C266.028 6.31239 265.212 6.31239 264.192 6.31239C263.58 6.31239 262.968 5.58404 262.356 5.58404C261.54 5.34126 261.132 6.55518 260.112 6.55518C258.888 6.31239 257.664 6.55518 256.44 6.55518C255.828 6.55518 255.42 6.55518 255.012 7.04075C253.38 8.49745 251.34 8.74024 249.3 8.49745C249.3 8.25467 249.3 8.01188 249.3 7.52632C249.912 7.52632 250.728 7.52632 251.136 6.79796C251.748 5.82683 252.564 5.34126 253.584 5.58404C253.788 5.58404 253.788 5.09847 253.992 5.09847L253.788 4.85569C252.156 5.34126 250.524 3.1562 248.892 4.6129C248.075 3.39898 247.259 4.12733 246.443 4.6129C245.423 3.39898 244.199 4.12733 242.975 3.88455C242.159 3.64177 241.343 4.12733 240.935 4.85569C240.119 6.06961 239.099 6.06961 238.079 5.34126C237.467 4.6129 236.447 4.6129 235.835 5.34126C235.019 6.31239 234.407 5.58404 233.795 5.09847C233.387 4.6129 232.775 4.85569 232.571 5.58404C232.367 6.55518 231.755 7.04075 231.143 6.31239C230.123 5.58404 229.307 5.58404 228.083 6.31239C227.675 6.55518 227.062 5.58404 226.45 6.31239C226.246 6.55518 226.042 5.82683 225.838 5.34126C225.634 4.85569 225.43 4.6129 224.818 4.6129C224.206 4.6129 223.798 4.6129 223.39 5.09847C222.982 5.58404 222.37 5.58404 221.962 5.09847C220.738 3.88455 219.718 4.37012 218.698 5.58404C218.29 6.31239 217.882 6.06961 217.474 5.58404C217.066 5.09847 216.454 5.09847 216.046 4.85569C215.026 3.88455 213.598 5.09847 212.578 3.88455C211.966 4.12733 211.15 4.37012 210.538 4.85569C209.926 5.34126 209.314 5.58404 208.702 4.85569C207.886 4.12733 206.866 4.6129 206.05 4.37012C204.417 6.06961 202.377 4.85569 200.541 5.09847C198.705 3.64177 196.665 4.37012 194.625 4.12733C193.809 3.88455 193.197 5.34126 192.381 4.85569C191.361 4.37012 190.545 3.64177 189.525 4.85569C188.913 4.12733 188.097 4.12733 187.281 4.37012C186.669 5.82683 185.649 3.88455 185.037 4.85569C184.833 5.34126 184.221 5.09847 184.017 4.85569C183.812 4.85569 181.16 4.85569 180.956 4.85569C180.548 5.09847 180.14 5.09847 179.936 4.85569C179.324 3.88455 178.712 5.09847 178.304 5.09847C177.488 5.09847 176.876 4.6129 176.06 4.37012C175.448 4.12733 175.04 4.6129 174.632 5.09847C174.428 5.34126 174.02 6.06961 173.612 6.06961C173.408 6.06961 173 5.58404 172.592 5.34126C171.98 4.6129 171.368 4.12733 170.552 5.09847C170.348 5.34126 170.144 5.34126 169.94 5.09847C169.328 4.37012 169.124 5.34126 168.512 5.34126C167.9 5.34126 167.492 4.6129 167.084 4.6129C165.452 4.6129 163.616 3.88455 161.983 5.34126C161.575 5.58404 160.963 5.34126 160.351 5.34126C158.923 5.82683 157.699 4.12733 156.271 5.09847C153.211 4.12733 153.211 4.12733 149.743 5.34126C147.703 4.85569 146.683 4.85569 146.071 4.37012C144.847 3.39898 143.419 3.88455 142.195 3.88455C141.175 5.09847 139.95 4.6129 138.726 4.6129C138.318 4.6129 137.91 4.85569 137.706 5.09847C136.89 5.82683 136.278 5.58404 135.87 4.37012C135.462 2.91341 134.238 3.88455 133.422 3.1562C132.606 2.18506 131.382 2.42784 130.362 2.91341C129.138 3.64177 127.914 4.37012 126.894 5.09847C126.486 5.34126 125.874 5.34126 125.466 5.34126C125.466 4.85569 125.466 4.37012 125.466 3.88455C125.466 3.39898 125.262 2.91341 125.058 2.67063C124.446 2.18506 123.63 1.69949 122.814 1.45671C122.406 1.21392 121.59 1.45671 121.386 1.94228C121.182 2.18506 121.59 2.91341 121.59 3.1562C121.59 3.39898 121.998 3.64177 121.998 3.88455C121.998 4.12733 121.998 4.6129 121.794 4.6129C121.59 4.85569 121.182 4.85569 120.978 4.85569C120.366 5.34126 119.958 4.85569 119.55 4.85569C118.325 4.6129 117.101 5.09847 116.285 4.6129C115.061 4.12733 114.041 3.64177 112.817 3.64177C112.613 3.64177 112.613 3.39898 112.409 3.39898L112.205 3.1562C112.205 2.91341 112.409 2.91341 112.409 2.91341C112.613 2.91341 113.021 2.91341 113.225 2.67063C113.633 1.94228 113.021 2.18506 112.817 1.94228C112.613 1.69949 112.409 1.69949 112.205 1.45671C111.593 0.728353 110.981 0.728353 110.369 1.45671C109.961 1.94228 109.757 1.21392 109.349 1.21392C108.533 0.728353 107.717 0.728353 107.105 1.45671C106.697 1.69949 106.493 2.18506 106.289 2.42784C105.677 3.1562 105.269 2.91341 104.657 1.94228C104.045 0.728353 103.637 0.728353 103.229 1.21392C102.209 2.67063 100.985 2.91341 99.5566 2.91341C98.9446 2.91341 98.5366 2.91341 97.9245 2.91341C97.5165 2.91341 97.3125 2.42784 97.3125 1.94228C97.3125 1.69949 97.1085 1.45671 96.9045 1.21392C96.7005 1.45671 96.4965 1.69949 96.4965 1.94228C96.4965 2.67063 96.4965 3.64177 96.2925 4.37012C95.8844 5.09847 94.8644 4.6129 94.0483 4.85569C93.0283 4.85569 92.0083 5.09847 91.1922 4.6129C90.5802 4.37012 90.1722 4.12733 89.5601 4.6129C89.1521 5.09847 88.3361 5.09847 88.3361 6.06961L88.1321 6.31239C87.9281 6.06961 87.7241 6.06961 87.7241 5.82683C87.7241 5.58404 87.7241 5.09847 87.7241 4.85569C87.7241 4.6129 87.5201 4.37012 87.5201 3.88455C87.316 3.88455 87.112 4.12733 86.908 4.12733C86.296 4.85569 85.684 5.34126 85.0719 6.06961C84.8679 6.31239 84.6639 6.06961 84.4599 5.82683C84.4599 5.58404 84.4599 5.34126 84.4599 5.34126C84.8679 4.6129 85.2759 4.12733 85.684 3.39898C86.092 2.67063 85.684 2.67063 85.2759 2.42784C84.4599 2.42784 84.4599 1.69949 84.2559 1.21392C84.0519 0.485569 83.6439 0.971138 83.6439 1.45671C83.4399 2.18506 83.2358 2.67063 82.6238 2.67063C81.6038 2.67063 80.7877 2.67063 79.7677 2.91341C79.5637 2.91341 79.5637 3.39898 79.7677 3.64177C79.9717 3.88455 79.7677 4.12733 79.9717 4.37012C79.7677 4.37012 79.3597 4.6129 79.1557 4.6129C78.1356 4.12733 78.1356 3.64177 78.3396 2.18506C78.3396 1.69949 78.5436 1.21392 78.3396 0.728353C78.3396 0.485569 78.1356 0.242784 77.9316 0L77.7276 0.242784C77.7276 0.485569 77.7276 0.485569 77.5236 0.728353C77.3196 1.21392 76.9116 2.18506 76.7075 2.18506C75.4835 2.42784 75.2795 3.88455 74.6674 4.85569C74.2594 5.34126 74.2594 5.34126 73.4434 4.85569C73.2394 4.85569 72.8314 4.85569 72.6274 4.85569C72.0153 4.85569 71.8113 5.82683 71.1993 5.34126C70.7913 4.85569 69.9752 4.85569 69.3632 4.6129C68.9552 4.6129 68.5472 4.12733 68.7512 3.64177C68.7512 3.1562 68.7512 2.67063 68.7512 2.18506C68.7512 1.45671 68.7512 0.971138 67.9351 0.728353C67.3231 0.728353 66.5071 0.485569 66.3031 1.69949C66.3031 1.94228 66.3031 2.91341 65.691 2.18506C64.875 1.45671 63.855 1.69949 63.0389 1.69949C62.6309 1.69949 62.4269 2.18506 62.4269 2.67063C61.4068 2.67063 61.6109 1.69949 61.6109 0.971138C61.4068 0.485569 61.2028 0 60.7948 0C60.3868 0 59.9788 0.242784 59.7748 0.485569C59.3667 0.728353 59.1627 0.971138 59.1627 1.21392C58.9587 2.67063 58.1427 2.91341 57.1226 2.91341C56.7146 2.91341 56.5106 3.39898 56.5106 3.88455C56.5106 4.37012 56.9186 4.6129 57.3267 4.6129C57.5307 4.6129 57.9387 4.6129 58.1427 4.6129C58.3467 4.6129 58.5507 4.85569 58.7547 5.09847C58.5507 5.34126 58.3467 5.58404 58.1427 5.58404C56.9186 5.58404 55.6946 5.82683 54.4705 5.82683C53.4505 7.28353 52.2264 6.55518 51.0024 6.79796C50.7984 6.79796 50.3903 6.79796 50.1863 7.04075C49.5743 7.52632 49.1663 7.7691 48.3502 7.7691C47.7382 7.7691 46.9222 7.7691 46.5141 7.04075C45.9021 6.31239 45.4941 8.01188 44.8821 7.04075C44.27 6.31239 43.658 7.28353 43.046 7.28353C42.434 7.28353 41.6179 6.55518 40.8019 6.79796C40.1899 7.04075 39.9859 7.52632 39.9859 8.25467C39.7818 8.74024 39.5778 8.74024 39.3738 8.25467C39.1698 7.04075 38.5578 6.55518 37.7417 6.79796C37.1297 6.79796 36.7217 6.79796 36.1097 6.79796C35.0896 6.55518 34.4776 7.28353 34.0696 8.49745C33.4576 9.71138 32.6415 9.95416 31.2134 9.22581C30.8054 8.98302 30.6014 8.74024 30.1934 8.74024C29.7854 8.74024 29.3774 8.74024 29.7854 9.46859C29.9894 9.95416 29.9894 10.4397 29.5814 10.4397C28.7653 10.6825 28.1533 11.4109 27.7453 12.1392C27.3373 13.3531 26.9292 14.3243 26.3172 15.5382C25.9092 16.2666 25.2972 16.5093 24.6851 16.0238C24.4811 15.781 24.0731 15.5382 23.6651 16.0238C22.645 17.4805 22.645 17.4805 21.217 16.7521C20.809 16.7521 20.4009 16.2666 19.7889 16.7521C19.1769 16.9949 18.7689 17.4805 18.1568 17.7233C17.1368 18.2088 16.3208 18.9372 16.1167 20.3939C15.7087 21.6078 14.4847 22.5789 14.6887 24.2784C16.1167 24.2784 17.3408 24.2784 17.1368 26.7063C17.1368 26.9491 17.7488 27.1919 18.1568 27.4346C18.5649 27.6774 18.7689 28.163 18.5649 28.6486C18.3608 29.1341 17.9528 29.3769 17.7488 29.3769C16.9328 28.8913 16.5248 28.6486 15.7087 29.3769C15.0967 29.8625 14.2807 30.5908 13.2606 29.8625C12.0366 31.0764 10.4045 30.348 8.97642 30.5908C7.75236 30.5908 7.54835 30.5908 7.75236 32.7759C7.75236 33.0187 7.95637 33.2615 7.54835 33.5042C7.34434 33.747 6.93632 34.2326 6.73231 34.4754C6.12028 35.2037 6.32429 35.6893 6.93632 36.4177C8.16038 37.3888 8.16038 37.8744 7.14033 38.8455C6.93632 39.0883 6.73231 39.3311 6.5283 39.3311C6.32429 39.3311 6.12028 39.0883 5.71226 39.0883C5.71226 38.8455 5.71226 38.6027 5.91627 38.3599C5.91627 38.1171 6.12028 38.1171 6.12028 37.8744C6.12028 36.9032 5.71226 36.4177 5.30424 36.1749C5.10024 36.6604 5.10024 37.146 4.89623 37.3888C4.48821 38.1171 3.87618 38.1171 3.46816 37.146C3.26415 36.6604 3.06014 36.1749 2.85613 36.1749C2.44811 35.9321 2.04009 35.9321 1.63208 36.1749C0.408019 36.4177 0 37.3888 0 38.6027C0 39.5739 0.612028 39.8166 1.42807 40.0594C3.06014 40.545 4.69222 41.7589 6.32429 40.0594C7.14033 41.0306 7.95637 40.7878 8.77241 40.0594L8.97642 40.3022C9.18042 42.2445 9.99646 41.7589 11.0165 41.0306C11.4245 40.7878 12.2406 41.5161 12.6486 41.7589C12.8526 41.7589 12.8526 42.0017 12.8526 42.0017L12.6486 42.2445C11.8325 42.4873 11.0165 42.73 9.99646 43.2156C9.18042 42.0017 7.95637 42.4873 6.93632 42.4873C5.71226 42.7301 4.89623 41.7589 3.87618 41.5161C3.67217 41.5161 3.46816 41.7589 3.26415 42.0017C3.87618 42.73 3.67217 43.2156 3.26415 43.944C3.06014 44.1868 3.26415 44.9151 3.67217 45.1579C3.87618 45.1579 3.87618 45.1579 4.08019 45.1579C4.2842 45.1579 4.69222 45.1579 4.89623 45.1579C5.10024 45.1579 5.30425 45.4007 5.50826 45.6435C5.30425 45.8862 5.10024 46.129 4.89623 46.129C4.2842 46.129 3.87618 46.6146 4.08019 47.343C4.08019 47.8285 4.69222 48.0713 5.10024 48.0713C5.50826 48.0713 5.91627 48.0713 6.32429 48.0713C6.73231 48.0713 7.14033 48.0713 7.14033 48.7997C7.14033 49.0424 6.73231 49.0424 6.5283 49.2852C6.12028 49.7708 5.71226 50.0136 6.12028 50.4991C6.73231 51.2275 7.34434 51.9559 8.16038 50.9847C8.36439 50.7419 8.5684 50.4991 8.77241 50.7419C9.38443 51.7131 10.2005 51.2275 11.0165 51.4703C11.6285 51.4703 12.0366 51.7131 12.2406 52.4414C12.2406 53.1698 12.4446 53.8981 11.8325 54.1409C10.4045 54.6265 10.4045 56.0832 9.79245 57.2971C10.2005 57.5399 10.4045 57.7827 10.8125 58.0255C11.0165 58.2682 11.2205 58.2682 11.4245 57.7827C11.6285 56.8115 11.8325 56.326 12.6486 57.2971C13.2606 56.8115 13.6686 56.326 14.2807 55.8404C14.2807 55.8404 14.4847 55.8404 14.6887 55.5976C14.6887 55.8404 14.8927 56.326 14.8927 56.5688C14.6887 57.5399 14.2807 58.2682 13.8726 58.9966C13.4646 59.9677 12.8526 60.2105 12.0366 59.4822C11.6285 58.9966 10.6085 58.9966 10.2005 59.725C9.79245 60.6961 10.6085 60.6961 11.0165 61.4244C11.8325 62.3956 12.4446 63.8523 13.2606 65.0662C13.8726 65.0662 14.2807 65.0662 14.8927 65.0662C14.4847 65.5518 14.2807 65.7946 14.2807 66.2801C14.0767 67.4941 14.8927 67.0085 15.3007 67.2513C15.7087 67.7368 16.3208 67.9796 16.9328 68.2224C17.1368 68.4652 17.1368 68.708 17.1368 68.9508C17.1368 69.1936 16.9328 69.4363 16.7288 69.6791C16.7288 69.6791 16.5248 69.6791 16.3208 69.6791C15.7087 69.6791 15.0967 69.6791 14.8927 70.1647C14.6887 71.1358 15.3007 71.6214 15.7087 72.107C16.1167 72.5925 16.5248 73.3209 17.3408 73.5637C18.3608 74.0492 18.9729 75.0204 19.5849 75.9915C19.3809 77.691 20.4009 78.6621 21.217 79.6333C22.033 80.3616 22.237 81.5756 22.033 82.5467C21.829 84.489 22.8491 85.7029 23.0531 87.4024C23.0531 88.3735 24.2771 89.1019 25.2972 88.8591C25.7052 87.4024 26.5212 86.1885 27.5413 86.1885C29.5814 85.7029 31.2134 84.2462 33.2535 84.2462C33.2535 84.7318 33.2535 85.2173 33.4575 85.4601C33.6616 85.7029 34.0696 85.9457 34.4776 85.9457C35.2936 85.9457 36.1097 85.9457 36.9257 85.9457C37.1297 85.9457 37.5377 85.9457 37.7417 85.9457C37.9458 85.9457 37.9458 86.1885 38.1498 86.1885C37.9458 86.4312 37.7417 86.674 37.7417 86.674C36.1097 86.4312 34.6816 87.6452 33.0495 87.8879C32.4375 87.8879 32.6415 90.3158 31.2134 88.8591C29.9894 89.8302 28.5613 90.3158 27.1333 90.8014C26.5212 91.0441 25.9092 91.7725 25.9092 92.5008C25.9092 92.7436 25.9092 93.2292 25.9092 93.472C25.5012 94.9287 24.6851 95.657 23.6651 94.9287C22.441 94.2003 20.809 95.1715 19.7889 93.7148C19.5849 93.9576 19.3809 94.2003 19.3809 94.4431C19.3809 94.9287 18.9729 95.4143 18.5649 95.4143C17.9528 95.4143 17.5448 95.4143 16.9328 95.4143C15.5047 95.1715 14.2807 95.4143 14.2807 97.8421C14.2807 98.0849 13.6686 98.3277 13.2606 98.5705C12.8526 98.8132 12.8526 99.056 13.0566 99.2988C13.0566 99.2988 13.2606 99.5416 13.4646 99.5416C14.0767 99.5416 14.4847 99.7844 15.0967 99.2988C15.5047 98.8132 16.1167 98.3277 16.7288 97.8421C17.1368 97.5993 17.7488 98.0849 17.7488 98.8132C17.7488 99.056 17.7488 99.5416 17.7488 99.7844C17.1368 100.027 16.5248 100.513 16.1167 100.756C15.3007 101.241 15.3007 101.241 15.7087 102.698C15.9127 103.183 16.3208 104.155 15.7087 104.397C14.8927 105.126 14.8927 106.582 14.2807 106.825C12.6486 107.553 11.8325 108.767 11.4245 110.467C11.2205 110.71 11.0165 110.71 10.8125 110.224C9.99646 109.253 9.79245 109.253 9.38443 109.981C8.97641 110.71 8.97641 111.681 9.38443 111.681C10.8125 111.924 10.6085 113.138 10.4045 114.109C10.4045 114.594 9.58844 114.837 10.2005 115.808C10.8125 116.779 10.6085 117.508 9.58844 117.75C9.18042 117.75 9.18042 118.236 9.38443 118.236C10.2005 118.479 11.0165 118.964 10.6085 120.178C10.2005 122.121 11.4245 122.363 12.2406 123.092C12.8526 123.577 12.8526 123.092 13.2606 122.849C13.4646 122.849 13.8726 122.606 14.0767 122.606C14.8927 123.577 16.1167 123.092 16.9328 124.063C17.1368 124.306 17.1368 125.277 17.3408 125.762C17.3408 126.005 17.5448 126.005 17.5448 126.248C17.7488 126.005 17.9528 126.005 17.9528 125.762C17.9528 125.52 17.9528 125.034 17.9528 124.791C18.1568 124.063 18.5649 123.334 18.9729 123.82C20.4009 124.791 22.033 124.791 23.2571 125.762C23.4611 126.005 23.4611 126.248 23.4611 126.491C23.2571 126.491 23.0531 126.733 22.8491 126.733C22.033 127.947 21.013 128.676 19.7889 128.433C19.1769 128.433 18.7689 128.676 18.3608 129.161C18.3608 129.404 18.3608 129.647 18.1568 129.89C18.1568 129.89 18.3608 130.132 18.5649 130.132C19.1769 130.132 19.9929 130.132 20.605 130.132C22.033 130.132 23.2571 130.132 24.6851 130.132C24.8892 130.132 25.2972 130.375 25.2972 130.618C25.2972 131.104 25.2972 131.589 25.0932 131.832C24.6851 132.317 24.2771 132.803 23.8691 133.046C23.2571 133.289 22.8491 134.017 22.441 134.503C22.237 134.745 22.441 135.716 22.645 135.716C22.8491 135.716 23.0531 135.959 23.4611 135.959C23.8691 135.959 24.2771 135.959 24.4811 136.202C25.9092 137.659 26.5212 135.474 27.7453 135.716C27.7453 135.474 27.7453 135.231 27.5413 134.988C27.3373 134.503 26.9292 134.26 26.7252 134.017C26.5212 133.774 26.5212 133.531 26.7252 133.289C26.9292 133.289 27.3373 133.046 27.5413 133.289C28.1533 133.774 28.7653 134.745 29.3774 134.988C30.3974 135.231 30.8054 133.774 31.6215 133.289C31.6215 133.289 31.8255 133.289 32.0295 133.289C32.2335 134.745 31.6215 135.716 30.3974 136.202C29.5814 136.445 29.7854 136.688 29.9894 137.416C30.3974 138.63 30.8054 139.115 32.0295 139.115C32.6415 139.115 32.8455 139.844 32.8455 140.572C32.8455 140.815 32.8455 141.301 33.0495 141.543C33.2535 141.786 33.4575 142.029 33.6616 142.029C33.8656 142.029 34.2736 141.786 34.2736 141.786C35.0896 140.572 35.0896 140.572 35.7017 141.301C36.5177 142.514 37.5377 142.514 38.5578 141.543C39.1698 140.815 39.7818 141.058 40.3939 141.786C41.0059 142.272 41.6179 142.272 42.23 141.786C42.638 141.543 43.046 141.301 43.658 141.543C45.0861 142.514 46.7182 141.543 48.3502 142.757C48.9623 143.243 49.5743 142.029 49.9823 141.543C50.5943 140.815 51.2064 140.815 51.8184 141.301C52.0224 141.543 52.2264 141.543 52.4304 141.301C54.0625 140.572 55.4906 140.087 56.9186 141.543C57.3267 141.786 57.7347 141.786 57.9387 141.301C58.5507 140.572 59.9788 140.815 59.9788 139.115C60.7948 138.387 61.8149 138.387 62.6309 138.873C63.6509 139.601 64.875 139.844 65.691 141.058C66.0991 141.786 66.9151 141.543 67.5271 141.301C67.7311 141.301 67.9351 140.815 68.1392 140.815C70.1793 139.601 72.0153 138.873 74.2594 140.329C74.8715 140.815 76.0955 140.815 76.9116 140.087C77.7276 139.115 78.3396 139.844 78.9517 140.572C79.3597 141.301 79.7677 141.543 80.5837 140.815C80.9917 140.329 81.8078 140.572 82.6238 140.572C82.8278 140.572 83.0318 140.329 83.4399 140.329C83.8479 140.087 83.4399 138.873 84.2559 139.115C84.6639 139.358 85.0719 139.844 85.48 140.329C85.684 140.572 86.092 140.815 86.296 140.572C87.112 140.087 87.9281 140.087 88.7441 140.572C88.9481 140.572 89.3561 140.329 89.3561 140.087C89.5601 139.601 89.5601 138.144 90.5802 139.358C91.1922 140.329 92.0083 140.572 93.0283 140.572C95.8844 140.572 98.7406 140.329 101.597 140.572C102.617 140.572 103.433 140.329 104.045 139.358C104.657 138.63 105.473 138.387 106.289 138.873C107.105 139.358 107.717 139.601 108.533 139.601C111.593 139.601 114.449 139.601 117.509 139.601C117.917 139.601 118.325 139.601 118.733 139.358C119.55 138.63 120.162 138.63 120.978 139.358C121.386 139.601 122.202 139.844 122.61 139.601C123.426 139.115 124.242 138.387 125.058 139.358C127.914 138.144 130.974 138.873 133.83 138.63C134.85 138.63 136.074 138.873 137.094 138.387C138.726 137.659 140.154 136.93 141.583 138.387C141.583 138.387 141.787 138.144 141.991 138.144C142.603 137.659 143.215 137.416 143.827 138.144C144.235 138.63 144.847 138.63 145.255 138.144C145.663 137.902 146.275 137.659 146.683 137.659C147.499 137.659 148.315 137.659 149.131 137.659C150.151 137.659 150.967 137.659 151.987 137.659C152.803 137.659 153.823 138.144 154.435 137.659C155.455 136.688 156.067 137.659 156.883 137.659C157.699 137.902 158.107 137.416 158.719 136.93C159.331 136.445 159.943 137.659 160.555 137.416C161.779 136.445 163.004 136.93 164.024 136.688C165.044 136.688 166.064 136.93 166.88 136.445C167.9 135.959 168.512 135.716 169.328 136.445C170.348 137.173 171.368 137.659 172.388 136.202C172.592 135.716 173.408 135.716 173.816 135.959C174.632 136.445 175.448 135.959 176.264 135.959C177.08 135.959 177.896 136.202 178.712 135.959C179.528 135.716 180.548 136.202 181.364 135.231C182.18 135.474 182.588 136.202 183.608 135.959C184.629 135.716 184.221 134.017 185.241 134.017C185.853 134.017 186.669 133.774 187.077 133.289C187.281 133.046 187.485 133.289 187.689 133.531C187.689 133.774 187.689 134.26 187.485 134.503C187.281 134.745 187.077 134.745 186.873 134.988C186.669 135.231 186.465 135.231 186.465 135.474C186.669 135.716 186.873 135.716 187.077 135.959C187.893 136.202 188.505 135.231 189.321 135.231C189.933 135.231 190.545 135.716 191.157 135.959C191.973 135.959 191.565 134.503 192.381 134.503C192.789 134.503 192.993 135.231 193.401 134.745C194.013 134.26 194.625 133.774 195.237 134.503C195.645 134.988 196.257 134.988 196.665 134.988C198.297 134.988 199.929 134.26 201.357 135.716C201.561 135.959 201.969 135.716 202.173 135.716C202.989 135.231 203.805 134.745 204.621 134.017C205.438 134.988 206.254 134.988 207.274 134.745C207.682 134.745 208.294 134.988 208.498 134.745C209.518 133.774 210.334 133.774 211.354 134.745C211.558 134.988 212.17 134.503 212.374 134.26C212.782 134.017 213.394 133.531 213.802 134.26C214.618 134.988 215.23 134.745 215.842 134.017C216.25 133.531 216.862 132.56 217.474 133.046C218.086 133.531 218.494 133.774 219.106 133.046C219.718 132.317 220.33 131.589 220.942 131.104C221.146 130.861 221.758 131.104 222.166 131.104C222.574 131.104 222.778 131.589 222.982 132.075C223.39 132.075 224.002 132.075 224.206 132.317C225.022 133.531 225.634 132.803 226.042 132.075C226.246 131.832 226.45 131.589 226.654 131.589C226.858 132.075 226.859 132.317 227.063 132.803C227.267 133.289 227.267 133.774 227.471 134.26C227.675 134.017 227.879 134.017 228.083 133.774C228.899 132.56 229.715 132.075 230.735 133.289C231.143 133.531 231.755 133.531 232.367 133.531C233.183 133.531 233.591 133.289 233.795 132.317C233.795 131.832 234.203 131.832 234.203 132.075C234.407 132.317 234.407 132.803 234.611 133.046C236.651 135.474 239.099 134.745 241.547 134.503C241.751 134.503 241.955 134.26 242.159 134.017C242.567 133.531 243.179 132.803 243.587 132.317C243.995 131.832 244.199 132.075 244.403 132.803C244.811 134.745 245.219 135.231 246.443 134.503C247.055 134.26 247.463 134.017 248.279 134.503C248.688 134.745 249.3 134.503 249.504 133.774C249.708 133.046 250.32 132.56 250.728 133.046C251.34 133.531 251.748 133.774 252.36 133.046C252.564 132.803 253.176 133.046 253.38 133.289C254.4 134.26 255.42 134.017 256.236 133.046C257.256 132.075 257.256 132.075 258.48 133.531C258.888 134.017 259.5 134.017 259.908 134.017C260.724 134.017 260.724 133.531 260.316 132.803C260.112 132.56 260.112 132.317 260.52 132.075C260.724 132.075 260.724 132.075 260.928 132.075C261.132 132.317 261.336 132.317 261.54 132.56C262.356 133.774 262.356 134.017 263.172 133.531C263.58 133.289 263.988 133.046 264.6 133.289C267.252 134.503 269.292 134.503 271.537 133.046C272.965 132.075 273.781 132.317 274.597 133.531C274.801 133.774 275.209 133.774 275.209 133.774C276.025 133.046 276.637 133.289 277.453 134.017C278.473 133.046 279.697 133.289 280.921 133.289C285.205 133.289 289.693 133.046 293.978 133.289C295.406 133.289 296.63 133.046 297.854 132.075C298.67 131.589 299.078 131.346 299.486 132.56C299.486 133.046 299.894 132.803 300.098 132.56C300.914 131.104 300.914 131.104 301.73 131.589C302.546 132.317 303.362 132.075 303.974 132.075C304.994 132.317 306.218 131.832 307.034 132.803C307.238 133.046 307.85 132.803 308.054 132.56C308.258 132.56 308.258 132.317 308.462 132.317C309.074 131.589 309.482 130.861 310.298 131.832C311.726 131.346 313.562 131.104 313.971 128.676C314.175 128.19 314.787 127.705 314.991 128.19C315.807 129.404 316.623 128.19 317.439 128.19C319.275 128.19 320.703 127.219 322.131 125.762C322.743 125.034 323.559 124.791 324.171 124.063C324.987 122.849 325.599 123.82 326.211 123.82C327.231 123.82 328.659 121.878 328.659 120.664C328.659 119.935 328.455 119.207 327.843 119.207C327.231 119.207 326.415 119.207 325.803 118.964C325.395 118.964 325.395 118.722 325.599 118.236C326.823 116.779 325.395 114.351 326.823 112.895C326.415 112.409 326.211 111.924 325.803 111.438C325.395 110.71 325.191 110.71 326.211 110.224C327.231 109.981 326.619 109.496 326.415 109.01C326.211 108.282 327.231 107.553 327.639 107.796C328.455 108.525 329.475 108.282 330.291 108.282C330.495 108.282 330.699 108.039 330.699 107.796C330.699 107.796 330.495 107.553 330.495 107.311C330.087 106.582 329.475 106.34 328.659 106.34C327.639 106.097 327.027 104.64 327.639 103.912C328.659 102.698 329.475 100.998 330.903 100.27C331.719 100.027 331.719 98.8132 331.107 98.5705C330.495 98.3277 329.883 97.8421 329.271 97.5993C328.455 97.3565 328.455 97.1138 328.863 96.3854C328.863 96.1426 329.067 96.1426 329.067 95.8998C328.863 93.472 329.475 91.5297 330.699 89.8302C331.311 88.8591 331.923 87.6452 331.515 86.1885C331.311 85.4601 330.903 84.489 331.107 84.2462C331.311 83.7606 332.127 83.275 332.739 83.0323C334.371 82.3039 335.8 80.8472 337.636 80.8472C338.044 80.8472 338.044 80.1188 338.044 79.6333C338.044 79.3905 337.84 79.3905 337.84 79.1477C337.636 78.6621 337.432 78.4194 338.044 78.1766C339.064 77.9338 340.288 78.4194 341.308 77.691C341.716 77.4482 341.512 76.2343 342.124 76.4771C342.532 76.4771 343.144 76.9626 343.552 77.2054C344.368 77.2054 345.184 77.4482 345.796 76.4771C346 76.2343 346.204 75.9915 346.204 75.7487C345.796 75.2632 345.592 74.7776 345.388 74.7776ZM334.983 46.8574C335.188 46.8574 335.188 46.8574 335.392 47.1002C335.8 47.343 336.004 47.5857 336.412 47.8285C336.412 48.3141 336.208 48.5569 335.8 48.7997C335.392 48.7997 334.983 48.5569 334.983 48.0713C334.779 47.343 334.779 47.1002 334.983 46.8574ZM9.38443 38.6027L9.18042 38.3599C9.18042 38.3599 9.18042 38.1171 9.38443 38.1171H9.58844C9.79245 38.3599 9.79245 38.6027 9.38443 38.6027ZM7.75236 47.343C7.54835 46.8574 7.54835 46.6146 7.34434 46.129L7.54835 45.8862H7.75236L7.95637 46.129C7.95637 46.3718 7.95637 46.3718 7.95637 46.6146C7.95637 47.1002 7.95637 47.1002 7.75236 47.343ZM10.8125 47.5857C10.4045 47.5857 9.99646 47.5857 9.58844 47.5857C9.38443 47.5857 9.38443 47.343 9.18042 47.1002L9.38443 46.8574C9.58844 46.8574 9.79245 46.8574 9.99646 46.8574C10.2005 46.8574 10.4045 46.8574 10.6085 46.8574C10.8125 46.8574 11.0165 47.1002 11.2205 47.343C11.0165 47.1002 11.0165 47.5857 10.8125 47.5857ZM15.5047 33.0187C16.7288 32.7759 17.3408 33.9898 18.3608 34.2326L18.5649 34.4754C18.5649 34.7182 18.7689 34.7182 18.7689 34.7182C18.7689 34.7182 18.5649 34.4754 18.3608 34.9609C18.1568 35.2037 17.7488 35.9321 17.5448 35.9321C16.7288 35.4465 15.9127 34.961 15.3007 34.2326C15.0967 33.9898 15.0967 33.747 14.8927 33.5042C15.0967 33.2615 15.3007 33.0187 15.5047 33.0187ZM17.7488 37.3888C17.5448 37.6316 17.3408 37.6316 17.3408 37.146L17.5448 36.9032C17.5448 36.9032 17.7488 36.9032 17.7488 37.146C17.7488 37.3888 17.7488 37.3888 17.7488 37.3888ZM15.9127 65.0662C15.5047 65.0662 15.0967 65.0662 14.8927 65.0662C14.8927 64.3379 15.3007 64.0951 15.9127 64.3379C16.1167 64.3379 16.1167 64.5807 16.3208 64.8234C16.1167 64.8234 15.9127 65.0662 15.9127 65.0662ZM17.7488 55.1121C17.5448 55.5976 17.1368 55.3548 16.7288 55.3548C16.5248 55.3548 16.5248 55.1121 16.5248 55.1121L16.7288 54.8693C17.1368 54.6265 17.3408 54.6265 17.7488 55.1121C17.7488 54.8693 17.7488 54.8693 17.7488 55.1121ZM19.5849 40.7878C19.5849 41.0306 19.3809 41.2733 19.1769 41.5161C18.9729 41.7589 18.5649 41.5161 18.3608 41.7589C17.1368 42.2445 16.5248 41.0306 15.5047 40.7878C15.0967 40.7878 14.8927 40.3022 15.3007 39.8166C15.5047 39.5739 16.1167 39.0883 16.1167 39.0883C16.9328 40.0594 18.1568 39.5739 19.1769 39.8166C19.3809 39.8166 19.7889 40.3022 19.5849 40.7878ZM20.1969 38.6027C19.9929 38.6027 19.9929 38.3599 19.7889 38.3599L19.9929 38.1171L20.1969 38.3599C20.1969 38.3599 20.1969 38.3599 20.1969 38.6027ZM19.9929 35.6893L19.7889 35.4465C19.7889 35.4465 19.7889 35.2037 19.9929 35.2037H20.1969C20.4009 35.4465 20.4009 35.6893 19.9929 35.6893ZM21.013 70.6503C20.809 70.6503 20.809 70.4075 20.605 70.4075L20.809 70.1647L21.013 70.4075V70.6503ZM23.0531 22.3362C22.8491 22.3362 22.8491 22.3362 23.0531 22.3362C23.0531 22.8217 22.645 23.3073 22.237 23.3073C21.625 23.3073 21.013 23.3073 20.4009 23.7929C19.7889 24.2784 19.7889 23.7929 19.5849 23.3073C19.3809 22.8217 19.3809 22.5789 19.1769 22.0934C18.9729 21.8506 18.9729 21.6078 19.1769 21.365C19.9929 21.1222 20.809 21.1222 21.421 20.6367C21.829 20.1511 21.829 21.1222 22.033 21.365C22.237 21.8506 22.441 22.0934 23.0531 22.3362C23.4611 20.8795 24.0731 20.1511 25.2972 20.3939C25.5012 20.3939 25.7052 20.6367 25.9092 20.8795C25.9092 20.8795 25.9092 21.1222 25.7052 21.1222C24.8892 21.365 24.0731 22.5789 23.0531 22.3362ZM24.0731 29.3769H24.2771C24.4811 29.6197 24.4811 29.8625 24.0731 29.8625L23.8691 29.6197C23.8691 29.6197 23.8691 29.3769 24.0731 29.3769ZM25.0932 81.3328C24.8892 81.5756 24.6851 81.5755 24.4811 81.5755C24.4811 81.5755 24.4811 81.5756 24.2771 81.3328C24.0731 81.09 24.0731 81.09 24.0731 80.8472C24.2771 80.6044 24.4811 80.1189 24.8892 79.8761C24.8892 79.8761 25.0932 79.6333 25.2972 79.6333C25.2972 79.8761 25.5012 80.1188 25.5012 80.3616C25.2972 81.09 25.2972 81.3328 25.0932 81.3328ZM25.7052 27.9202L25.5012 27.6774C25.5012 27.6774 25.5012 27.4346 25.7052 27.4346H25.9092C26.1132 27.6774 26.1132 27.9202 25.7052 27.9202ZM31.2134 14.0815C31.2134 13.8387 31.4175 13.8387 31.4175 13.8387C32.6415 14.8098 33.8656 13.1104 35.0896 13.5959C35.2936 13.5959 35.2936 13.5959 35.4976 13.5959C35.7017 13.5959 35.9057 13.8387 35.9057 13.8387C35.9057 14.0815 35.9057 14.3243 35.7017 14.5671C35.4976 14.8098 35.0896 15.2954 34.6816 15.2954C34.0696 15.5382 33.4575 15.2954 32.0295 15.2954C32.2335 15.2954 31.6215 15.5382 31.4175 14.8098C31.0094 14.8098 31.2134 14.3243 31.2134 14.0815ZM28.1533 24.2784C29.3774 23.7929 30.1934 22.8217 31.6215 23.0645C32.0295 23.0645 32.4375 23.0645 32.8455 23.0645C33.2535 23.0645 33.6616 23.0645 34.0696 23.0645C35.4976 23.0645 35.9057 23.3073 35.9057 24.0357C35.9057 25.2496 34.8856 24.764 34.4776 25.2496C34.0696 25.7351 33.4576 25.7351 33.0495 25.7351C32.4375 25.7351 31.6215 25.7351 31.0094 25.7351C29.7854 25.9779 28.5613 25.7351 28.1533 25.4924C27.7453 25.7351 27.7453 24.5212 28.1533 24.2784ZM32.4375 30.5908C32.2335 30.8336 32.0295 30.8336 32.0295 30.348L32.2335 30.1053H32.4375C32.4375 30.5908 32.4375 30.5908 32.4375 30.5908ZM31.8255 33.5042L31.6215 33.747L31.4175 33.5042L31.6215 33.2615C31.6215 33.2615 31.6215 33.2615 31.8255 33.5042ZM26.7252 25.0068C26.5212 25.0068 26.5212 24.764 26.3172 24.764L26.5212 24.5212L26.7252 24.764C26.7252 24.764 26.7252 24.764 26.7252 25.0068ZM28.7653 79.6333C28.3573 79.6333 27.9493 79.6333 27.5413 79.6333C27.3373 79.6333 27.3373 79.3905 27.1333 79.1477L27.3373 78.9049C27.5413 78.9049 27.7453 78.9049 28.1533 78.9049C28.3573 78.9049 28.3573 78.9049 28.5613 78.9049C28.7653 78.9049 28.9693 79.1477 29.1733 79.3905C29.1733 79.3905 28.9693 79.6333 28.7653 79.6333ZM28.7653 30.348C29.1734 30.1053 29.5814 30.1053 29.7854 30.1053L29.9894 30.5908C29.7854 30.5908 29.5814 30.8336 29.3774 30.8336C29.1733 30.8336 28.9693 30.5908 28.7653 30.348ZM29.5814 70.4075L29.7854 70.1647C29.9894 70.1647 30.1934 69.9219 30.6014 69.9219C31.4175 69.9219 31.8255 69.4363 31.8255 68.4652C31.8255 68.4652 32.2335 68.2224 32.4375 68.2224L32.6415 68.4652C32.8455 70.1647 32.4375 70.6503 30.6014 70.6503C30.3974 70.6503 30.1934 70.6503 29.7854 70.4075C29.7854 70.6503 29.7854 70.6503 29.5814 70.4075ZM34.4776 84.0034C34.2736 84.2462 33.8656 84.489 33.4575 84.489C33.4575 84.489 33.4575 84.489 33.4575 84.7318C33.4575 84.0034 33.6616 83.275 32.8455 82.7895C32.0295 82.5467 31.4175 82.0611 30.8054 81.5755C30.1934 81.3328 30.3974 80.6044 30.3974 79.8761C30.3974 79.3905 30.6014 78.9049 31.0094 78.9049C31.8255 78.9049 32.6415 78.9049 33.4575 78.9049C34.6816 78.9049 34.2736 79.6333 33.8656 80.3616C33.6616 80.8472 33.6616 81.3328 34.0696 81.5755C34.2736 81.8183 34.6816 82.3039 34.8856 82.5467C35.2936 83.0323 34.8856 83.5178 34.4776 84.0034ZM36.1097 33.0187C35.9057 33.0187 35.7017 32.7759 35.4976 32.7759V32.5331C35.7017 32.5331 35.9057 32.2903 36.1097 32.2903C36.3137 32.5331 36.5177 32.5331 36.7217 32.7759C36.5177 32.5331 36.3137 32.7759 36.1097 33.0187ZM20.809 99.5416C21.013 99.5416 21.013 99.5416 21.013 99.5416C21.217 99.7844 21.217 100.027 20.809 100.027L20.605 99.7844C20.605 99.5416 20.605 99.5416 20.809 99.5416ZM17.9528 100.027C18.1568 100.27 18.3608 100.27 18.5649 100.513C18.7689 100.756 18.5649 100.998 18.3608 100.756C18.1568 100.756 18.1568 100.513 17.9528 100.027ZM16.9328 109.981C17.3408 109.981 17.5448 110.224 17.9528 110.467C17.7488 110.71 17.5448 110.71 17.3408 110.952C17.1368 110.952 16.9328 110.71 16.7288 110.71C16.7288 110.224 16.7288 109.981 16.9328 109.981ZM21.421 118.236L21.625 117.993L21.829 118.236C21.829 118.722 21.625 118.479 21.421 118.236ZM21.829 113.623C21.625 113.866 21.421 114.351 21.217 114.837C21.013 115.808 20.1969 115.565 19.5849 115.565C19.5849 116.536 19.5849 117.508 18.3608 117.75C17.9528 117.75 17.5448 118.236 17.1368 118.479C16.9328 119.45 16.7288 119.935 16.1167 120.178C15.9127 120.178 15.7087 120.421 15.5047 120.421C15.3007 120.421 15.3007 120.421 15.0967 120.178C15.0967 120.178 14.8927 119.935 15.0967 119.935C15.5047 118.964 16.3208 118.479 17.3408 118.479C17.3408 117.508 17.1368 116.779 18.3608 116.536C18.7689 116.536 18.9729 116.051 18.9729 115.565C18.7689 115.565 18.5649 115.565 18.5649 115.323C18.3608 114.837 18.7689 114.837 19.1769 114.594C18.9729 114.351 18.9729 114.109 18.7689 113.866C18.3608 113.623 18.3608 113.38 18.1568 113.138C18.3608 113.138 18.7689 112.652 18.7689 112.895C19.5849 113.38 20.4009 113.38 21.217 112.895C21.217 112.895 21.421 112.895 21.625 112.895C22.033 113.138 22.033 113.38 21.829 113.623ZM24.8892 105.126C25.5012 104.883 26.1132 104.883 26.7252 105.368C26.5212 105.611 26.5212 105.854 26.3172 105.854C25.9092 105.854 25.2972 105.854 24.8892 105.611L24.6851 105.368C24.6851 105.368 24.8892 105.368 24.8892 105.126ZM25.9092 110.224V110.467C25.7052 110.467 25.5012 110.467 25.5012 110.224L25.7052 109.981C25.7052 110.224 25.9092 110.224 25.9092 110.224ZM25.9092 127.219C25.2972 127.705 24.6851 127.705 24.0731 127.219C23.8691 127.219 23.8691 126.733 23.8691 126.491C24.4811 126.491 25.0932 126.248 25.5012 125.762C26.1132 125.277 26.9292 125.277 26.9292 125.762C26.5212 126.248 26.3172 126.733 25.9092 127.219ZM39.7818 9.71138L39.9859 9.95416L39.7818 10.1969C39.7818 10.1969 39.5778 10.1969 39.5778 9.95416C39.5778 10.1969 39.5778 9.95416 39.7818 9.71138ZM37.9458 17.4805C38.3538 17.2377 38.5578 17.2377 38.9658 17.7233C38.9658 17.966 38.7618 18.2088 38.5578 18.2088C38.1498 18.2088 37.9458 17.966 37.5377 17.7233C37.7417 17.7233 37.9458 17.7233 37.9458 17.4805ZM37.7417 20.8795C37.5377 20.6367 37.7417 20.3939 38.1498 20.6367C38.3538 20.6367 38.3538 21.1222 38.3538 21.365C38.5578 21.365 38.9658 21.365 38.9658 22.0934H38.7618C38.7618 21.8506 38.5578 21.6078 38.5578 21.365C38.1498 21.1222 37.9458 21.1222 37.7417 20.8795ZM37.3337 88.6163C37.5377 88.6163 37.7417 88.6163 38.1498 88.6163C38.3538 88.6163 38.5578 88.6163 38.9658 88.8591H39.1698C39.1698 88.8591 39.1698 88.8591 39.3738 89.1019L39.1698 89.3447L38.9658 89.5874C38.5578 89.5874 38.1498 89.5874 37.7417 89.5874C37.5377 89.5874 37.5377 89.3447 37.3337 89.1019C37.1297 88.8591 37.1297 88.6163 37.3337 88.6163ZM32.2335 119.935C32.2335 119.693 32.6415 119.693 32.8455 119.693C32.8455 119.207 33.0495 118.964 33.4575 118.722C33.6616 118.722 33.6616 118.722 33.8656 118.722C34.0696 118.722 34.0696 118.964 34.2736 119.207L34.0696 119.45C33.6616 119.45 33.2535 119.45 33.0495 119.45C33.0495 119.693 32.8455 119.935 32.8455 120.178C32.2335 120.421 32.0295 120.178 32.2335 119.935ZM32.2335 121.635C32.2335 121.635 32.4375 122.121 32.6415 122.121C32.4375 122.606 32.0295 122.363 31.6215 122.363C31.4175 122.363 31.4175 122.121 31.4175 122.121C31.6215 121.878 31.8255 121.635 32.2335 121.635ZM31.8255 133.289C31.6215 132.56 31.2134 132.317 30.8054 132.317C30.3974 132.56 29.7854 132.803 29.3774 133.046C29.3774 133.046 29.1733 133.046 28.9693 133.046L28.7653 132.803C29.5814 131.589 30.3974 130.375 31.6215 129.647C32.2335 130.618 32.6415 129.647 33.2535 129.647C33.4575 129.647 33.4575 130.132 33.4575 130.375C33.6616 131.832 33.2535 132.803 31.8255 133.289ZM34.0696 137.902C33.8656 138.144 33.6616 138.144 33.6616 137.659L33.8656 137.416C33.8656 137.416 34.0696 137.416 34.0696 137.659C34.0696 137.659 34.0696 137.659 34.0696 137.902ZM34.6816 128.19C34.4776 128.19 34.4776 127.705 34.4776 127.462C34.4776 127.462 34.4776 127.462 34.2736 127.462C33.6616 127.705 33.2535 128.19 32.6415 128.19C32.4375 128.19 32.2335 127.947 32.0295 127.705C32.0295 127.462 32.0295 126.976 32.2335 126.733C32.8455 126.005 33.6616 126.248 34.4776 127.219C34.4776 127.219 34.4776 127.219 34.4776 127.462C34.6816 127.462 34.8856 127.462 35.0896 127.705C35.0896 127.947 34.8856 128.19 34.6816 128.19ZM35.7017 136.93C35.4976 136.688 35.2936 136.688 35.2936 136.688C35.2936 136.202 35.4976 135.959 35.7017 135.474C35.9057 135.716 35.9057 135.959 36.1097 136.202C35.9057 136.445 35.7017 136.688 35.7017 136.93ZM39.7818 133.531C38.7618 134.503 39.5778 136.202 38.5578 137.173C38.1498 137.659 37.7417 137.902 37.7417 137.416C37.7417 137.173 37.5377 136.688 37.5377 136.445C38.5578 135.716 37.9458 134.017 38.7618 133.046C38.9658 132.803 39.3738 132.803 39.5778 132.803C39.9858 133.774 39.9859 133.046 39.7818 133.531ZM40.1899 115.323C39.7818 115.08 39.5778 114.594 39.1698 115.323C38.5578 116.294 38.1498 117.265 37.5377 117.993C37.1297 118.479 36.7217 118.722 36.1097 118.479C35.7017 118.236 35.0896 117.993 34.6816 117.75C33.8656 117.265 33.2535 116.051 33.4575 115.565C33.8656 114.594 34.6816 114.837 35.2936 115.08C36.3137 115.323 36.5177 114.351 36.9257 113.38C37.3337 112.409 37.7417 112.409 38.7618 112.895C39.1698 113.138 39.5778 112.895 39.9859 113.138C40.8019 113.38 40.8019 113.623 40.8019 115.08C40.8019 115.08 40.8019 115.808 40.1899 115.323ZM41.2099 135.959L41.0059 135.716C41.0059 135.716 41.0059 135.474 41.2099 135.474H41.4139C41.6179 135.716 41.6179 135.959 41.2099 135.959ZM43.658 133.289C43.454 133.531 43.25 134.017 42.638 133.774C42.23 133.531 42.0259 133.289 41.6179 133.046C41.6179 133.046 41.6179 133.046 41.4139 133.046C41.4139 133.289 41.2099 133.531 41.2099 133.774C41.0059 134.017 40.8019 133.774 41.0059 133.531L41.2099 133.289H41.4139C41.4139 133.289 41.4139 133.289 41.4139 133.046C41.4139 132.56 41.6179 132.317 42.0259 132.075C42.23 132.075 42.638 132.075 43.046 132.075C43.25 132.075 43.454 132.317 43.862 132.317C43.862 132.803 43.862 133.289 43.658 133.289ZM44.4741 32.7759L44.2701 32.5331L44.4741 32.2903L44.6781 32.5331C44.6781 32.5331 44.6781 32.7759 44.4741 32.7759ZM44.2701 23.7929V23.5501H44.4741C44.4741 23.7929 44.4741 24.0357 44.2701 24.0357C44.4741 24.0357 44.4741 23.7929 44.2701 23.7929ZM42.842 14.3243C42.638 14.0815 42.434 13.8387 42.23 13.5959C42.0259 13.3531 42.0259 13.1104 41.8219 12.8676C41.8219 12.8676 42.0259 12.6248 42.23 12.6248C43.046 12.6248 44.066 12.6248 44.8821 12.6248C44.8821 12.6248 44.8821 12.6248 45.0861 12.6248C45.0861 12.382 45.0861 12.1392 45.2901 11.8964C45.4941 11.6537 45.6981 11.8964 45.4941 12.1392C45.4941 12.382 45.0861 12.382 44.8821 12.382C44.8821 12.382 44.8821 12.382 44.8821 12.6248C44.6781 13.8387 43.454 13.3531 42.842 14.3243ZM45.4941 19.18C44.8821 19.18 45.0861 18.9372 45.4941 18.6944C45.4941 18.6944 45.4941 18.6944 45.6981 18.6944C45.4941 18.6944 45.6981 18.9372 45.4941 19.18C45.6981 18.9372 45.4941 18.9372 45.4941 19.18ZM46.1061 15.2954C45.9021 15.2954 45.6981 15.2954 45.6981 15.0526C45.4941 15.0526 45.4941 14.8098 45.2901 14.8098C45.2901 14.8098 45.2901 14.8098 45.4941 14.5671C45.4941 14.5671 45.4941 14.5671 45.6981 14.5671C46.1061 14.3243 46.3101 14.3243 46.7182 14.8098C46.3101 15.0526 46.1061 15.2954 46.1061 15.2954ZM47.9422 128.676L48.1462 128.919L47.9422 129.161C47.5342 128.919 47.5342 128.676 47.9422 128.676ZM48.7583 132.803C48.7583 133.046 48.5542 133.046 48.3502 133.046C48.3502 133.046 48.3502 133.046 48.3502 133.289C48.3502 133.289 48.3502 133.289 48.1462 133.289C48.1462 133.531 47.9422 133.774 47.9422 134.017H47.7382C47.7382 133.531 47.9422 133.531 48.1462 133.531C48.1462 133.531 48.1462 133.531 48.3502 133.531C48.3502 133.289 48.3502 133.046 48.5542 133.046C48.7583 132.317 48.9623 132.56 48.7583 132.803ZM55.2866 8.49745L55.0826 8.25467C55.0826 8.25467 55.0826 8.01188 55.2866 8.01188H55.4906C55.4906 8.01188 55.4906 8.25467 55.2866 8.49745ZM56.3066 139.844C56.1026 140.087 55.8986 140.087 55.8986 139.601L56.1026 139.358C56.1026 139.358 56.3066 139.358 56.3066 139.601C56.3066 139.601 56.3066 139.601 56.3066 139.844ZM56.3066 12.1392C56.1026 12.382 55.8986 12.382 55.8986 11.8964L56.1026 11.6537C56.1026 11.6537 56.3066 11.6537 56.3066 11.8964V12.1392ZM57.7347 33.747L57.5307 33.5042C57.5307 33.5042 57.5307 33.2615 57.7347 33.2615H57.9387C57.9387 33.5042 57.9387 33.747 57.7347 33.747ZM58.3467 11.8964H58.5507C58.5507 12.1392 58.5507 12.382 58.3467 12.382L58.1427 12.1392C58.3467 12.1392 58.3467 11.8964 58.3467 11.8964ZM63.4469 133.046C63.2429 133.046 63.2429 132.803 63.0389 132.803L63.2429 132.56L63.4469 132.803C63.6509 132.803 63.6509 132.803 63.4469 133.046ZM63.0389 28.163C62.8349 28.163 62.4269 28.163 62.2229 28.163C62.2229 28.4058 62.2229 28.8913 62.2229 29.1341C62.4269 29.1341 62.6309 29.1341 62.8349 29.1341C63.0389 29.1341 63.2429 29.3769 63.4469 29.3769C63.6509 29.6197 63.0389 30.1053 62.6309 29.8625C62.2229 29.8625 62.0189 29.3769 62.0189 28.8913C61.8149 29.1341 61.6109 29.1341 61.4068 29.3769C60.9988 29.8625 61.4068 31.0764 60.1828 30.348C59.5708 29.8625 58.9587 29.8625 58.3467 29.8625C57.9387 29.8625 58.1427 29.6197 58.3467 29.1341C58.7547 28.4058 59.1627 27.9202 59.9788 28.8913C60.5908 28.4058 61.2028 27.9202 62.0189 28.163C61.8149 27.6774 61.6109 27.4346 61.4068 26.9491C61.2028 26.4635 61.2028 25.9779 61.4068 25.7351C61.6109 25.2496 62.2229 25.2496 62.8349 25.7351C63.0389 25.9779 63.2429 26.2207 63.4469 26.4635C64.059 27.1919 63.855 27.9202 63.0389 28.163ZM64.263 14.3243C64.059 14.3243 64.059 14.0815 63.855 14.0815L64.059 13.8387L64.263 14.0815C64.467 14.0815 64.467 14.0815 64.263 14.3243ZM68.1392 7.52632C67.9351 7.52632 67.9351 7.52632 67.7311 7.52632C67.3231 7.52632 67.1191 7.04075 66.9151 6.55518C66.9151 6.06961 66.5071 5.82683 66.0991 5.82683C65.691 5.82683 65.487 6.06961 65.283 6.55518C65.283 6.79796 65.283 7.28353 65.283 7.52632C65.283 8.49745 65.283 8.49745 64.467 8.01188C64.263 7.7691 64.059 7.7691 63.855 7.7691C63.855 7.7691 63.855 7.7691 63.6509 7.7691C63.6509 8.01188 63.6509 8.25467 63.4469 8.25467C63.2429 8.49745 63.0389 8.25467 63.2429 8.01188C63.2429 7.7691 63.6509 7.7691 63.6509 7.7691C63.2429 6.31239 62.4269 5.34126 61.4068 4.85569C61.4068 5.58404 60.9988 5.82683 60.3868 5.82683C59.9788 5.82683 59.7748 5.34126 59.7748 4.85569C59.7748 4.6129 59.7748 4.6129 59.7748 4.37012C59.9788 3.88455 59.9788 3.88455 60.3868 4.37012C60.5908 4.6129 60.9988 4.85569 61.2028 4.85569C61.4068 4.12733 61.8149 3.64177 62.0189 2.91341C63.0389 3.64177 64.059 3.88455 65.283 3.88455C66.5071 3.64177 67.3231 4.37012 67.7311 5.82683C67.9351 6.31239 68.1392 6.79796 68.3432 7.52632C68.5472 7.28353 68.3432 7.52632 68.1392 7.52632ZM70.7913 10.4397L70.5873 10.1969C70.5873 9.95416 70.7913 9.95416 70.7913 9.95416C70.7913 10.1969 70.9953 10.1969 70.9953 10.1969L70.7913 10.4397ZM70.5873 8.49745L70.3833 8.25467C70.1792 7.28353 70.7913 6.55518 71.4033 6.79796C71.6073 6.79796 71.6073 7.04075 71.6073 7.04075C71.8113 7.52632 70.9953 8.49745 70.5873 8.49745ZM76.9116 5.82683C76.7076 6.06961 76.7076 6.31239 76.5035 6.55518C76.2995 6.31239 76.0955 6.06961 76.0955 5.82683C76.0955 5.34126 76.0955 4.85569 76.0955 4.37012C76.0955 4.12733 76.2995 4.12733 76.5035 4.12733L76.7075 4.37012C76.7075 4.6129 76.7075 4.85569 76.7075 5.34126C76.9116 5.58404 76.9116 5.58404 76.9116 5.82683ZM83.0318 3.88455L83.2358 4.12733L83.0318 4.37012C83.0318 4.37012 82.8278 4.37012 82.8278 4.12733C82.8278 4.12733 83.0318 4.12733 83.0318 3.88455ZM83.2358 7.28353C82.4198 8.01188 81.1958 7.28353 80.5837 8.49745C80.3797 8.25467 80.3797 8.01188 80.3797 8.01188C80.3797 7.7691 80.3797 7.52632 80.3797 7.52632C81.1958 6.79796 82.0118 6.06961 83.0318 5.82683C83.2359 5.82683 83.4399 6.06961 83.4399 6.31239C83.4399 6.55518 83.4399 7.04075 83.2358 7.28353ZM84.0519 136.93C83.8479 137.173 83.6439 137.173 83.6439 136.688L83.8479 136.445C83.8479 136.445 83.8479 136.445 84.0519 136.445C84.0519 136.445 84.0519 136.445 84.2559 136.445C84.0519 136.688 84.0519 136.688 84.0519 136.93C84.0519 136.688 84.0519 136.688 84.0519 136.93ZM90.5802 6.31239C90.3762 6.31239 90.3762 6.06961 90.1722 6.06961L90.3762 5.82683L90.5802 6.06961C90.5802 6.31239 90.5802 6.31239 90.5802 6.31239ZM102.005 6.31239C101.801 6.55518 101.189 6.55518 100.985 6.55518C100.577 6.31239 100.373 5.58404 99.9646 5.09847C100.373 4.85569 100.577 4.85569 100.781 4.6129C101.189 4.6129 101.393 4.6129 101.597 4.85569C102.209 4.85569 102.413 6.06961 102.005 6.31239ZM110.777 137.902C110.165 138.144 109.553 137.902 108.941 137.902C108.941 138.144 108.737 138.387 108.737 138.63C108.125 138.873 108.125 138.63 108.125 138.144C108.125 138.144 108.125 138.144 108.125 137.902C107.921 137.902 107.717 137.659 107.513 137.659C107.309 137.416 107.513 137.173 107.921 137.416C108.125 137.416 108.125 137.902 108.125 138.144C108.125 138.144 108.125 138.144 108.329 138.144C108.533 138.144 108.737 138.144 109.145 138.144C109.349 137.173 109.961 136.688 110.573 136.445C110.981 136.202 111.389 136.688 111.389 137.173C111.185 137.173 110.981 137.902 110.777 137.902ZM112.001 6.31239C111.797 6.31239 111.797 6.55518 111.593 6.55518L111.389 6.31239L111.593 6.06961C111.797 6.06961 111.797 6.06961 112.001 6.31239ZM114.245 6.55518C114.041 6.79796 113.837 6.79796 113.633 6.79796L113.429 6.55518L113.225 6.31239C113.429 6.06961 113.633 5.58404 114.041 5.34126C114.041 5.34126 114.245 5.09847 114.449 5.09847C114.449 5.34126 114.653 5.58404 114.653 5.82683C114.449 6.06961 114.449 6.31239 114.245 6.55518ZM121.386 8.98302C121.59 8.98302 121.998 8.74024 122.202 8.74024C122.406 8.74024 122.406 8.98302 122.61 9.22581C122.406 9.22581 122.202 9.46859 121.794 9.46859C121.59 9.46859 121.386 9.22581 121.386 8.98302ZM122.406 12.1392C122.202 12.382 121.998 12.382 121.998 11.8964L122.202 11.6537C122.202 11.6537 122.406 11.6537 122.406 11.8964C122.406 11.8964 122.61 12.1392 122.406 12.1392ZM123.222 5.58404C123.222 5.58404 123.018 5.58404 123.018 5.34126C123.018 5.09847 123.222 5.09847 123.222 4.85569L123.426 5.09847C123.426 5.34126 123.222 5.34126 123.222 5.58404ZM124.854 6.31239H124.65C124.65 5.82682 124.854 5.82683 125.058 5.58404C125.058 5.58404 125.058 5.58404 124.854 5.58404C125.058 6.06961 124.854 6.31239 124.854 6.31239ZM129.546 8.49745C128.322 8.49745 127.098 8.49745 126.078 9.46859C125.874 9.46859 125.67 9.22581 125.466 9.22581C125.67 8.98302 125.67 8.74024 125.874 8.49745C126.078 8.25467 126.486 7.7691 126.894 7.7691C127.506 7.52632 127.914 7.7691 128.526 7.7691C128.934 7.7691 129.342 7.7691 129.75 7.7691C129.954 7.7691 130.158 8.01188 129.954 8.01188C129.75 8.25467 129.546 8.49745 129.546 8.49745ZM129.75 6.31239C129.546 6.31239 129.342 6.06961 129.342 5.82683C129.342 5.34126 129.546 5.09847 129.75 4.6129L129.954 4.85569C130.158 5.58404 130.158 6.06961 129.75 6.31239ZM135.462 10.4397L135.258 10.1969C135.258 10.1969 135.258 9.95416 135.462 9.95416H135.666C135.666 9.95416 135.666 10.1969 135.462 10.4397ZM138.93 10.1969C138.726 10.4397 138.522 10.4397 138.318 10.1969C138.114 9.95416 137.91 9.71138 137.706 9.46859C137.706 9.46859 137.706 9.22581 137.502 8.98302C137.706 8.98302 137.706 8.98302 137.91 8.74024C138.114 8.74024 138.114 8.74024 138.318 8.74024C138.726 8.74024 139.134 9.22581 138.93 9.71138C138.93 9.95416 138.93 9.95416 138.93 10.1969ZM143.623 133.046C143.623 133.046 143.419 133.046 143.419 132.803C143.419 132.56 143.623 132.56 143.623 132.317L143.827 132.56C143.827 132.803 143.827 133.046 143.623 133.046ZM160.759 133.046C160.147 133.289 159.739 133.046 159.535 132.317C159.535 132.075 159.535 131.832 159.739 131.589C159.739 131.589 160.147 131.589 160.351 131.832C160.555 132.075 160.759 132.317 160.759 132.56C161.167 132.803 161.167 133.046 160.759 133.046ZM169.532 10.4397C169.328 10.4397 169.328 10.6825 169.532 10.4397C169.328 10.6825 169.328 10.6825 169.532 10.4397C169.328 11.1681 169.124 11.4109 168.716 11.4109C168.716 12.1392 168.308 12.382 167.696 12.382C167.288 12.382 166.88 12.1392 166.676 12.1392V11.8964C166.676 11.6537 166.88 11.6537 166.88 11.6537C167.492 11.6537 168.104 11.6537 168.716 11.6537C168.512 10.9253 168.92 10.6825 169.532 10.4397C169.328 10.6825 169.328 10.6825 169.532 10.4397C169.328 10.4397 169.328 10.4397 169.532 10.4397C169.532 10.1969 169.736 9.95416 169.736 9.71138H169.94C169.94 10.4397 169.736 10.4397 169.532 10.4397ZM186.261 130.132C186.057 130.132 186.057 129.89 185.853 129.89L186.057 129.647L186.261 129.89C186.261 129.89 186.261 129.89 186.261 130.132ZM197.685 134.017C197.277 133.774 197.277 133.531 197.685 133.289L197.889 133.531C197.685 133.774 197.685 134.017 197.685 134.017ZM209.11 118.964L209.314 119.207C209.11 119.693 208.906 119.693 208.702 119.207C208.702 118.964 208.906 118.964 209.11 118.964ZM209.11 127.947C208.702 128.19 208.498 127.705 208.294 127.462C208.09 127.219 207.886 126.733 207.886 126.491C207.886 126.491 207.886 126.491 207.682 126.491C207.07 126.491 206.254 126.733 206.05 125.762C205.846 125.034 205.642 124.791 205.029 124.791C204.825 124.791 204.417 124.791 204.213 124.791C203.601 124.548 202.785 123.334 203.193 123.092C203.601 122.849 204.417 122.606 204.621 122.849C205.846 123.82 207.478 123.82 208.702 124.791C208.906 125.034 208.906 125.277 209.11 125.277C208.906 125.277 208.702 125.52 208.498 125.52C208.09 125.762 207.886 126.005 207.886 126.491C208.09 126.491 208.294 126.491 208.498 126.491C209.11 126.491 209.314 126.976 209.314 127.705C209.314 127.705 209.314 127.947 209.11 127.947ZM215.23 130.618C215.23 131.346 215.23 131.832 215.23 132.56C215.23 132.803 215.026 132.803 214.822 133.046L214.618 132.803C214.618 131.346 214.618 129.647 214.618 128.19C214.618 127.947 214.822 127.947 214.822 127.705C215.026 127.947 215.23 128.19 215.23 128.433C215.23 128.919 215.23 129.89 215.23 130.618ZM217.27 131.104C217.066 131.104 217.066 130.861 216.862 130.861L217.066 130.618L217.27 130.861C217.474 130.861 217.474 131.104 217.27 131.104ZM219.718 130.132C219.31 129.89 219.31 129.647 219.718 129.404L219.922 129.647C219.922 129.89 219.718 130.132 219.718 130.132ZM230.939 130.861L231.143 130.618L231.347 130.861C231.143 131.346 230.939 131.346 230.939 130.861ZM234.611 129.89C234.407 130.132 234.203 130.132 234.203 129.647L234.407 129.404H234.611C234.611 129.89 234.611 129.89 234.611 129.89ZM241.139 5.34126C240.935 5.34126 240.935 5.09847 240.731 5.09847L240.935 4.85569L241.139 5.09847C241.139 5.34126 241.139 5.34126 241.139 5.34126ZM243.587 129.161C243.383 129.161 243.383 128.919 243.179 128.919L243.383 128.676L243.587 128.919C243.587 128.919 243.587 128.919 243.587 129.161ZM248.484 6.06961C248.688 6.31239 248.688 6.55518 248.688 6.79796C248.484 6.79796 248.279 6.55518 248.075 6.55518C248.075 6.06961 248.279 5.82683 248.484 6.06961ZM248.688 7.7691C248.688 8.01188 248.484 8.25467 248.484 8.49745C248.279 8.74024 248.075 8.49745 248.279 8.25467C248.279 7.7691 248.484 7.7691 248.688 7.7691ZM253.176 118.479L252.972 118.236C253.176 118.236 253.176 117.993 253.176 117.993C253.38 117.993 253.38 118.236 253.38 118.236C253.38 118.236 253.38 118.479 253.176 118.479ZM257.052 7.52632C256.848 7.52632 256.644 7.28353 256.44 7.28353C256.644 7.04075 256.644 6.79796 256.848 6.79796C257.256 6.79796 257.46 7.04075 257.868 7.28353C257.46 7.28353 257.256 7.52632 257.052 7.52632ZM259.908 120.421C259.5 120.664 259.092 120.664 258.888 120.421C258.48 120.178 258.48 119.693 258.684 119.207C258.684 118.964 258.888 118.964 258.888 118.722C259.296 119.207 259.704 119.693 259.908 120.178C260.112 120.178 259.908 120.421 259.908 120.421ZM261.336 125.277L261.132 125.034V124.791H261.336C261.54 125.034 261.336 125.277 261.336 125.277ZM262.152 15.2954C261.948 15.2954 261.54 15.2954 261.336 15.2954C261.132 14.8098 260.928 14.0815 260.52 13.5959C260.112 12.8676 260.724 12.6248 260.724 11.8964C260.928 11.1681 261.132 10.4397 261.744 9.95416C261.948 9.71138 262.56 9.46859 262.764 9.71138C263.172 9.71138 263.988 11.1681 263.988 11.4109C263.58 12.8676 263.376 14.5671 262.152 15.2954ZM266.232 130.132C266.028 130.132 266.028 130.375 265.824 130.375C265.62 130.375 265.416 130.132 265.212 130.132C265.212 130.132 265.212 129.89 265.416 129.89C265.62 129.647 266.028 129.161 266.232 128.919C266.232 128.919 266.436 128.919 266.64 129.161H266.844C266.844 129.404 266.844 129.647 266.844 129.89C266.64 129.89 266.436 130.132 266.232 130.132ZM268.68 130.132L268.476 129.89C268.476 129.89 268.476 129.647 268.68 129.647H268.884C269.088 129.89 269.088 130.132 268.68 130.132ZM270.312 129.161L270.108 128.919V128.676H270.312C270.721 128.919 270.721 129.161 270.312 129.161ZM270.925 123.577C270.721 123.577 270.721 123.577 270.312 123.577C270.108 123.577 269.904 123.577 269.7 123.577C269.496 123.577 269.496 123.334 269.496 123.334C269.701 123.092 269.7 122.849 269.904 122.606C270.312 122.606 270.721 122.606 271.129 122.606C271.333 122.606 271.537 122.849 271.741 123.092C271.333 123.334 271.129 123.334 270.925 123.577ZM274.393 125.277C273.781 125.52 273.373 125.034 273.373 124.306C273.373 123.82 273.577 123.577 273.985 123.577C274.393 123.577 274.597 123.82 274.801 124.306C275.005 124.791 274.801 125.277 274.393 125.277ZM275.005 122.363C274.801 122.606 274.393 122.363 274.393 122.121C274.393 121.878 274.597 121.635 274.801 121.635C275.005 121.635 275.209 121.878 275.617 121.878C275.209 122.121 275.209 122.363 275.005 122.363ZM278.473 9.71138C278.677 9.71138 278.677 9.95416 278.881 9.95416C279.085 10.1969 279.493 10.4397 279.901 10.6825C279.697 10.9253 279.493 11.4109 279.289 11.4109C278.677 11.4109 278.269 11.4109 278.269 10.4397C278.269 10.1969 278.473 9.95416 278.473 9.71138ZM284.185 116.779C283.573 117.993 282.349 117.022 281.737 117.993C281.329 118.722 281.125 119.693 280.309 120.178C279.697 120.421 279.085 120.421 278.677 120.421C277.045 120.421 277.657 119.693 278.065 118.964C277.657 118.722 277.453 118.479 277.045 118.479C276.637 118.236 276.637 117.993 276.841 117.75C277.045 117.508 277.453 116.779 277.657 116.779C278.473 116.536 279.493 116.536 280.513 116.536C281.329 116.536 281.941 115.08 283.165 115.565C283.369 115.565 283.777 115.565 283.981 115.565C284.185 115.565 284.389 115.808 284.797 115.808C284.389 116.294 284.389 116.536 284.185 116.779ZM288.061 10.9253L288.265 10.6825C288.265 10.6825 288.469 10.6825 288.469 10.9253V11.1681C288.469 11.4109 288.265 11.4109 288.061 10.9253ZM289.693 15.0526C289.285 14.8098 288.877 14.8098 288.673 14.5671C288.469 14.5671 288.469 14.0815 288.265 14.0815C288.469 14.0815 288.673 13.8387 288.877 13.8387C289.081 13.8387 289.081 13.8387 289.285 13.8387C289.693 13.8387 289.897 14.0815 290.101 14.0815C290.509 14.3243 290.509 14.5671 290.509 14.8098C290.305 15.0526 290.101 15.2954 289.693 15.0526ZM290.917 119.45C290.917 119.45 290.713 119.45 290.713 119.207C290.713 118.964 290.917 118.964 290.917 118.722L291.121 118.964C291.121 119.207 290.917 119.45 290.917 119.45ZM297.65 14.3243C297.446 14.0815 297.242 14.0815 297.038 13.8387C297.446 13.5959 297.65 13.5959 298.058 13.3531L298.262 13.8387C298.058 14.3243 297.854 14.3243 297.65 14.3243ZM306.218 14.0815C306.218 13.3531 307.442 12.6248 307.85 12.6248L308.054 12.8676V13.1104C307.85 13.5959 307.646 13.8387 307.442 14.0815C307.238 14.3243 307.034 14.3243 306.626 14.5671C306.626 14.3243 306.218 14.3243 306.218 14.0815ZM311.114 129.404C309.89 129.647 308.666 129.161 307.646 129.89C307.442 129.89 307.442 130.132 307.238 130.132C307.034 129.89 306.83 129.89 306.83 129.647C306.83 129.404 306.83 128.919 307.034 128.919C308.054 128.433 309.074 128.433 309.89 127.705C310.298 127.462 310.706 128.19 311.114 128.676C311.114 128.676 311.318 128.919 311.318 129.161C311.318 128.919 311.318 129.161 311.114 129.404ZM314.583 125.277C314.175 125.034 314.175 124.791 314.583 124.548L314.787 124.791C314.787 125.034 314.583 125.277 314.583 125.277ZM333.351 53.6553C333.759 53.4126 333.963 53.4126 334.371 53.8981C334.371 54.1409 334.167 54.3837 334.167 54.3837C333.759 54.3837 333.555 54.1409 333.147 53.8981L333.351 53.6553ZM331.923 34.7182C331.719 34.961 331.515 34.7182 331.719 34.4754C331.719 34.2326 332.127 34.2326 332.127 34.2326C332.127 34.2326 332.127 34.2326 332.127 33.9898C332.127 33.9898 332.127 33.9898 331.923 33.9898C332.127 34.2326 331.923 34.4754 331.923 34.7182ZM332.535 74.5348L332.127 74.0492C332.127 73.8064 332.127 73.5637 332.331 73.0781C332.535 72.5925 332.739 72.3497 332.943 71.8642C332.943 71.8642 332.943 71.8642 332.943 71.6214C332.739 71.6214 332.535 71.6214 332.535 71.3786C332.331 71.1358 332.535 70.893 332.739 71.1358C332.943 71.1358 332.943 71.3786 332.943 71.6214C332.943 71.6214 332.943 71.6214 333.147 71.6214C333.555 71.6214 333.963 71.8642 333.963 72.3497C333.759 73.8064 333.147 74.0492 332.535 74.5348ZM335.188 72.5925C334.983 72.5925 334.984 72.3497 334.78 72.3497L334.983 72.107L335.188 72.3497V72.5925ZM335.392 69.4363C334.983 69.9219 333.759 70.1647 333.351 69.4363C333.147 69.1936 332.943 68.4652 333.351 68.2224C333.759 67.7368 333.963 67.4941 334.575 67.2513C334.779 67.0085 335.596 68.4652 335.596 68.9508C335.392 69.1936 335.392 69.4363 335.392 69.4363ZM337.636 66.7657C337.432 67.0085 337.228 66.7657 337.432 66.5229C337.432 66.2801 337.84 66.2801 338.044 66.2801C337.84 66.2801 337.636 66.7657 337.636 66.7657ZM339.88 74.7776C339.268 75.0204 338.86 74.5348 338.86 73.8064C338.86 73.3209 339.064 73.0781 339.472 73.0781C339.88 73.0781 340.084 73.3209 340.288 73.8064C340.288 74.292 340.084 74.5348 339.88 74.7776Z" fill="white"/>
</svg>
