<svg width="614" height="145" viewBox="0 0 614 145" fill="none" xmlns="http://www.w3.org/2000/svg">
<g clip-path="url(#clip0_107_5)">
<path d="M0.357115 19.5994L40.7706 18.825C41.0087 18.8846 41.1873 19.0633 41.1873 19.3611L43.1514 124.864C43.1514 125.222 43.0324 125.401 42.7943 125.401L2.38077 126.175C2.14269 126.175 1.96413 125.996 1.96413 125.639L0 20.1356C0.0595192 19.7781 0.178558 19.5994 0.357115 19.5994ZM4.70202 39.3776L4.99961 55.4026C5.05913 58.3217 5.17817 61.1216 5.41625 63.8024C5.23769 64.8151 5.23769 67.198 5.29721 70.8915L5.35673 73.5127C5.35673 75.0021 5.47577 76.6105 5.71384 78.219L5.47577 79.8274C5.77336 83.7592 5.95192 85.7847 6.13048 85.8443C5.95192 87.0357 5.8924 87.9889 5.8924 88.7634L6.01144 93.7675C6.13048 100.916 8.92788 106.039 14.4632 109.137C14.9393 109.137 16.3678 109.733 18.689 110.924C19.4033 111.103 20.1175 111.163 20.7722 111.163H21.0103C27.2598 111.044 31.5452 109.018 33.8069 105.146C35.8306 102.406 36.8424 98.712 36.7829 94.0058C37.3185 93.1717 37.5566 91.742 37.4971 89.7761L37.14 70.5937C37.0805 67.7342 36.9614 65.113 36.7233 62.7301C36.9019 61.6578 36.9019 59.394 36.8424 55.8792L36.7233 49.5645C36.7233 48.8496 36.4257 47.3603 35.8306 45.0965C36.3067 42.8328 36.5448 41.1648 36.5448 40.0924V39.5563C36.4853 36.5777 35.5925 35.0883 33.8069 35.1479H33.5688C32.9736 35.1479 32.557 35.267 32.2594 35.4458L30.95 35.2075C28.1526 35.6245 26.6051 35.8032 26.248 35.8032C25.5933 35.4458 24.879 35.3266 24.1053 35.3266C22.6768 35.3266 21.784 36.3394 21.5459 38.2457C21.6055 39.9733 21.5459 44.5604 21.5459 51.9474C21.5459 52.3644 21.665 53.0793 21.8435 54.0325C21.665 54.9856 21.6055 55.8196 21.6055 56.4154C21.665 59.1557 21.9031 62.7301 22.3197 67.198L21.9031 74.2872L22.4983 78.5168C22.3792 82.7465 22.2602 85.4869 22.1411 86.6783C22.3197 87.7506 22.4387 89.0016 22.4983 90.3718V90.6101C22.5578 93.7675 22.2602 95.3759 21.5459 95.3759L21.0103 94.6015L20.8912 88.0485C20.8317 83.7592 20.5936 77.6233 20.296 69.6405L20.5341 68.5682L19.9389 63.5641C20.177 58.8578 20.296 52.9601 20.1175 45.9306L20.058 42.5349L19.7604 40.986C19.9389 40.6882 19.9984 40.3307 19.9984 39.9137C19.9389 37.2925 19.0461 35.9819 17.3201 36.0415C16.0702 36.0415 15.475 35.9223 15.475 35.5649L14.3441 35.7436C14.106 35.7436 13.0347 35.6841 11.1896 35.5649C11.0111 35.5649 10.9515 35.6841 10.9515 35.8628L9.64211 35.6245H8.03509C5.77336 35.6841 4.6425 36.9351 4.70202 39.3776Z" fill="#FAFAFA"/>
<path d="M39.0446 23.4717L77.494 21.2079C77.7916 21.2079 77.9106 21.3866 77.9701 21.6845L83.803 120.933C83.803 121.29 83.684 121.409 83.3864 121.469L44.937 123.733C44.6394 123.733 44.5204 123.613 44.4608 123.256L38.628 24.0078C38.628 23.6504 38.8065 23.5312 39.0446 23.4717ZM44.937 57.9047C45.5322 62.6109 46.544 66.6023 47.8534 69.8788C48.6272 71.9639 51.008 74.7042 55.0553 78.1594C55.8885 78.4573 56.7813 79.2317 57.6741 80.4827C57.6741 80.9593 57.0789 81.3168 55.7695 81.6146C53.2697 81.6146 50.9484 81.6742 48.8057 81.7933H48.5677C47.7939 81.8529 47.2582 83.0444 47.0202 85.3677L47.3178 85.8443C47.3178 86.023 47.2582 86.0826 47.0797 86.0826L47.4368 87.8102L47.6154 91.2654C48.151 100.32 51.3055 106.099 57.0789 108.601C57.2575 108.601 58.2098 108.78 59.8168 109.197L62.019 108.839C62.019 109.078 62.3166 109.316 62.7928 109.554L64.995 109.435C69.2208 109.197 72.8515 106.397 75.9465 101.095C76.7798 98.295 77.0774 94.7802 76.8393 90.6101L76.4226 83.4018C75.9465 75.0616 71.4826 68.3895 63.0903 63.3258L62.3166 62.3726C62.7332 61.5386 64.0427 61.0025 66.1853 60.8833L68.1495 60.7642C69.4589 60.7046 70.9469 60.7642 72.6134 61.0025C73.7443 60.3472 74.28 59.5727 74.2204 58.6791C73.5657 47.4795 71.7802 41.2839 68.9232 40.0924C67.0781 37.7095 62.6737 36.7564 55.5909 37.1734C52.853 37.3521 50.1747 39.1393 47.4963 42.5945C45.5322 45.871 44.7584 50.4581 45.056 56.4154C44.937 56.4154 44.937 56.9515 44.937 57.9047ZM59.7573 51.59C60.2334 51.7091 60.531 52.1857 60.5905 53.0197L60.7691 55.7601C60.9477 58.7387 60.7691 60.228 60.2929 60.2876C59.4002 59.4536 58.924 58.2025 58.805 56.4154L58.6859 54.2112C58.5669 52.841 58.924 52.007 59.7573 51.59ZM61.1262 83.521C62.138 83.4614 62.9118 85.9039 63.5665 90.8484V91.0867C63.507 93.5887 63.1499 94.8398 62.5547 94.8993H62.0785C61.4238 94.9589 61.0072 93.4696 60.8286 90.491L60.5905 86.7974C60.412 84.6528 60.6501 83.5805 61.1262 83.521Z" fill="#FAFAFA"/>
<path d="M80.3509 17.2761H117.312C117.61 17.3357 117.729 17.5144 117.729 17.8122V127.188C117.729 127.545 117.61 127.724 117.312 127.724H80.3509C80.0533 127.724 79.9343 127.545 79.9343 127.188V17.8122C79.9938 17.4548 80.1128 17.2761 80.3509 17.2761ZM85.41 39.9137V40.7477C85.41 47.4795 85.5291 53.675 85.7076 59.2749C85.5291 61.9556 85.41 64.3385 85.41 66.364C85.5886 68.9256 85.7671 70.2958 85.9457 70.4745C85.5886 71.7851 85.41 73.8702 85.41 76.7297C85.41 78.4573 85.5291 82.4486 85.7076 88.7038L85.41 89.2399C85.5886 89.5378 85.7076 89.8952 85.7076 90.3122V92.5164L85.41 94.1249C85.5886 94.4823 85.7076 94.7802 85.7076 94.9589C85.7076 95.4355 85.5886 96.1504 85.41 97.1631C85.41 97.6397 85.5291 99.0099 85.7076 101.274C85.5291 103.954 85.41 105.801 85.41 106.754C85.5291 110.031 86.1838 111.639 87.3146 111.639H88.386C89.8145 111.639 91.5405 111.52 93.5642 111.341L94.0998 111.639L95.1712 111.341C95.6473 111.341 96.3616 111.461 97.3734 111.639C102.433 111.401 104.992 111.163 104.992 110.805L109.337 111.341C110.587 111.341 111.241 108.78 111.241 103.716C111.063 102.763 110.944 101.869 110.944 100.976V97.9971C110.944 97.8184 111.063 97.6993 111.241 97.6993C111.241 94.7802 110.349 93.3505 108.503 93.3505H106.599C105.647 93.3505 104.099 93.4696 101.956 93.6483L101.123 92.576V82.5082C101.123 81.2572 101.956 80.6019 103.563 80.6019H107.67C108.92 79.9466 109.575 78.3977 109.575 75.9552C109.575 74.8233 109.396 72.5596 109.039 69.1639C109.218 68.032 109.337 66.781 109.337 65.3513C109.099 64.696 108.682 64.0407 107.968 63.4449C107.313 63.6237 106.956 63.7428 106.896 63.7428C105.289 63.3854 104.218 63.2067 103.623 63.2067L101.718 63.5045L101.183 62.5514V60.1089C100.826 57.4877 100.647 55.9984 100.647 55.7601C101.123 53.3772 101.718 52.1857 102.254 52.1857H106.361L107.968 52.4836C109.218 52.1857 109.872 51.3517 109.872 50.0411V37.1734C109.872 35.6841 108.98 34.7905 107.135 34.433H86.9575C85.9457 34.433 85.41 36.2798 85.41 39.9137Z" fill="#FAFAFA"/>
<path d="M118.741 0.476582H173.737C174.153 0.536154 174.332 0.774445 174.332 1.19145V143.809C174.332 144.285 174.153 144.523 173.737 144.523H118.741C118.324 144.523 118.146 144.285 118.146 143.809V1.19145C118.146 0.714872 118.384 0.476582 118.741 0.476582ZM126.121 95.7929C126.359 96.6269 126.478 97.9375 126.478 99.7247C125.228 101.452 124.157 107.946 123.264 119.265V120.337C123.74 122.72 124.455 123.911 125.407 123.911H132.847L134.99 123.554C135.406 123.792 136.001 123.911 136.775 123.911H137.489C142.013 122.72 144.215 121.052 144.215 118.907C144.691 114.975 144.929 111.937 144.929 109.673V108.244C145.108 106.814 145.465 106.099 146.001 106.099H147.429C147.786 106.099 148.262 106.576 148.858 107.529V110.031C148.858 119.265 149.929 123.911 152.072 123.911H160.94C166.416 123.911 169.094 122.243 169.094 118.907C169.57 117.358 169.808 116.286 169.808 115.69L167.666 100.737C165.761 77.9807 163.975 60.1089 162.309 47.0624C161.178 31.1565 159.988 23.2334 158.738 23.2334H135.704C132.847 23.2334 131.418 25.7354 131.418 30.68C129.038 56.1175 127.312 77.802 126.121 95.7929ZM146.715 74.1085H147.072C147.548 77.0871 147.786 79.5891 147.786 81.555V83.6997C147.786 84.0571 147.429 84.4145 146.715 84.772H146.358C146.001 84.772 145.643 84.4145 145.286 83.6997C145.524 77.2658 146.001 74.1085 146.715 74.1085Z" fill="#FAFAFA"/>
<path d="M175.046 5.65941H246.588C247.064 5.71898 247.362 5.95727 247.362 6.31471V141.009C247.362 141.485 247.124 141.664 246.588 141.664H175.046C174.57 141.664 174.272 141.426 174.272 141.009V6.31471C174.391 5.8977 174.629 5.65941 175.046 5.65941ZM176.474 31.3353L177.486 36.0415V41.1052L183.2 113.665C183.2 119.265 184.45 122.064 186.89 122.064H198.973C204.329 121.588 207.008 120.218 207.008 118.014C207.662 114.618 208.139 110.329 208.377 105.265C208.377 105.146 208.258 103.716 208.02 100.916C208.615 100.142 209.329 97.5801 210.043 93.1717H210.698C211.353 96.3291 212.067 102.465 212.722 111.639C213.376 118.609 214.745 122.064 216.769 122.064H217.424C219.745 122.064 222.602 121.707 226.173 121.052C227.304 121.052 227.839 121.29 227.839 121.707L229.506 121.35C231.292 121.826 232.422 122.005 232.839 122.005H234.208C236.47 122.005 237.541 119.086 237.541 113.248L238.196 107.231V106.873L237.541 104.55C238.851 101.035 241.172 76.4914 244.564 30.9778C244.564 29.1311 243.553 27.7609 241.529 26.9269C241.053 26.9269 240.577 27.046 240.16 27.2843C237.839 27.046 236.053 26.9269 234.803 26.9269C233.434 26.9269 232.006 27.4035 230.458 28.297C229.625 27.8205 228.732 27.6417 227.78 27.6417C226.173 28.1183 225.161 32.2288 224.745 40.0924H224.387C224.387 40.3307 224.506 40.4499 224.745 40.4499C223.852 50.3985 223.197 57.0111 222.721 60.2876H222.066V58.9174C221.59 48.9092 220.935 41.82 220.042 37.7691C220.042 30.7991 219.031 27.3439 217.007 27.3439C213.436 27.1056 211.293 26.9864 210.638 26.9864C210.4 26.9864 210.103 27.1056 209.627 27.3439L207.603 26.9864H203.556C200.877 26.9864 199.508 31.2161 199.508 39.735C199.508 39.9137 198.854 46.1689 197.485 58.56H196.83C195.937 40.2116 195.282 30.3225 194.806 29.0119C193.914 27.6417 192.545 26.9864 190.759 26.9864H182.367C181.891 26.9864 181.415 27.1056 180.998 27.3439C180.581 27.1056 180.165 26.9864 179.629 26.9864H178.617C177.248 27.9396 176.474 29.3694 176.474 31.3353Z" fill="#FAFAFA"/>
<path d="M250.159 0L305.155 1.01274C305.572 1.07231 305.75 1.3106 305.75 1.72761L303.191 144.285C303.191 144.762 302.953 145 302.536 145L247.54 143.987C247.124 143.987 246.945 143.749 246.945 143.272L249.504 0.714873C249.564 0.238291 249.802 0 250.159 0ZM255.813 95.4355C256.052 96.2695 256.111 97.5801 256.111 99.3673C254.861 101.035 253.671 107.588 252.54 118.848V119.92C252.957 122.303 253.671 123.494 254.623 123.494L262.063 123.613L264.206 123.316C264.622 123.554 265.218 123.673 265.991 123.733H266.706C271.229 122.601 273.491 120.992 273.55 118.848C274.086 114.916 274.383 111.878 274.443 109.614V108.184C274.622 106.754 275.038 106.039 275.574 106.099H277.002C277.359 106.099 277.836 106.576 278.371 107.529L278.312 110.031C278.133 119.265 279.145 123.911 281.288 123.971L290.156 124.15C295.632 124.269 298.37 122.66 298.429 119.324C298.905 117.775 299.203 116.703 299.203 116.167L297.358 101.214C295.87 78.3977 294.441 60.5259 293.013 47.4199C292.18 31.514 291.108 23.5312 289.858 23.5312L266.765 23.1142C263.908 23.0546 262.48 25.4971 262.361 30.5012C259.444 55.8196 257.301 77.5041 255.813 95.4355ZM276.764 74.1085H277.121C277.538 77.0871 277.717 79.5892 277.717 81.6146L277.657 83.7592C277.657 84.1167 277.3 84.4741 276.586 84.8316H276.229C275.871 84.8316 275.514 84.4741 275.157 83.7592C275.574 77.2658 276.11 74.1085 276.764 74.1085Z" fill="#FAFAFA"/>
<path d="M302.417 4.5871L354.496 3.21693C354.913 3.2765 355.091 3.45522 355.091 3.87223L358.603 139.638C358.603 140.115 358.425 140.294 358.008 140.353L305.929 141.724C305.512 141.724 305.333 141.485 305.333 141.068L301.881 5.30197C301.881 4.82539 302.119 4.64667 302.417 4.5871ZM308.428 30.2034L308.488 32.2288C308.547 35.6841 308.726 37.8287 308.964 38.6627C308.786 41.4626 308.786 44.1434 308.845 46.8242L309.202 61.3599C309.262 63.1471 309.5 65.1726 310.035 67.4363C309.619 69.7001 309.5 71.7256 309.5 73.5723L309.678 79.6487C309.738 82.0912 309.916 84.1167 310.154 85.7251L309.916 88.7634C310.393 98.1758 310.631 104.074 310.69 106.337C310.631 112.473 310.631 116.226 310.631 117.537C310.928 119.801 311.94 120.873 313.785 120.813C315.035 120.754 316.583 120.635 318.487 120.337L321.88 120.575L324.261 120.158C325.451 120.337 326.582 120.456 327.653 120.396C328.903 120.337 329.677 119.443 329.974 117.656C329.915 115.273 329.736 112.831 329.439 110.21C329.439 101.095 329.498 95.1376 329.677 92.2781C329.439 90.8484 329.26 89.2995 329.201 87.5719C329.082 82.8061 329.379 80.4827 330.034 80.4232C330.808 80.4232 331.7 83.7592 332.653 90.491C332.236 92.0994 332.058 93.4696 332.058 94.5419L332.415 108.78C332.474 110.567 332.415 112.95 332.236 115.869C332.296 118.788 333.605 120.218 336.045 120.158L347.533 119.86C349.556 119.801 350.568 118.55 350.509 116.048L350.449 114.38C350.389 110.924 350.211 108.78 349.973 107.946C350.151 105.205 350.151 102.465 350.092 99.7843L349.735 86.5592C349.556 79.7679 347.949 74.6446 344.914 71.1298V70.1171C347.771 67.0193 349.08 62.0152 348.902 55.1048L348.723 48.0156C348.425 36.8755 345.211 29.6672 339.021 26.2716C339.021 25.795 332.891 25.3184 320.689 24.7227L311.345 25.0205C309.321 25.0801 308.369 26.8077 308.428 30.2034ZM328.784 45.5731H329.141C330.034 45.5731 330.51 47.122 330.629 50.2794L330.808 56.0579C330.867 58.7387 330.451 60.1089 329.558 60.1684C329.201 60.1684 328.844 59.8706 328.546 59.1557L328.248 50.0411C328.248 49.2666 328.07 48.2539 327.832 47.0029C328.129 46.0497 328.486 45.6327 328.784 45.5731Z" fill="#FAFAFA"/>
<path d="M358.365 6.31471L404.016 6.67214C404.373 6.73172 404.492 6.97001 404.492 7.32744L403.362 142.26C403.362 142.736 403.183 142.915 402.826 142.915L357.175 142.558C356.818 142.558 356.698 142.319 356.698 141.902L357.829 6.97001C357.948 6.49343 358.067 6.31471 358.365 6.31471ZM364.376 34.2543V35.267C364.317 43.5477 364.376 51.173 364.496 58.143C364.257 61.479 364.079 64.3385 364.079 66.9002C364.257 70.0575 364.496 71.7256 364.734 71.9638C364.257 73.5723 364.019 76.1935 364.019 79.7083C364.019 81.8529 364.079 86.7975 364.257 94.5419L363.9 95.1972C364.138 95.6142 364.257 96.0312 364.198 96.5674V99.2481L363.841 101.274C364.079 101.75 364.198 102.048 364.198 102.286C364.198 102.823 364.079 103.716 363.841 104.967C363.841 105.503 363.96 107.231 364.138 110.031C363.9 113.367 363.781 115.571 363.722 116.763C363.841 120.813 364.615 122.839 366.043 122.839H367.412C369.198 122.839 371.34 122.779 373.781 122.541L374.435 122.899L375.804 122.601C376.34 122.601 377.233 122.72 378.483 122.958C384.732 122.72 387.887 122.422 387.887 122.005L393.243 122.72C394.791 122.72 395.624 119.622 395.684 113.307C395.445 112.116 395.386 110.984 395.386 109.912L395.445 106.218C395.445 105.98 395.565 105.861 395.803 105.861C395.803 102.286 394.731 100.44 392.47 100.44H390.089C388.898 100.44 386.994 100.499 384.375 100.737L383.363 99.3673L383.482 86.9166C383.482 85.3677 384.494 84.5933 386.518 84.5933L391.577 84.6528C393.124 83.8784 393.958 81.9721 393.958 78.9339C393.958 77.5041 393.779 74.7042 393.362 70.5341C393.6 69.1639 393.719 67.5555 393.719 65.8279C393.422 64.9938 392.886 64.2194 392.053 63.445C391.279 63.6832 390.803 63.7428 390.684 63.7428C388.72 63.2662 387.41 63.0279 386.637 63.0279L384.256 63.3258L383.601 62.3131V59.2749C383.185 55.9984 382.946 54.2112 382.946 53.9133C383.601 50.9943 384.256 49.5645 385.03 49.5645L390.089 49.6241L392.112 49.9815C393.66 49.6241 394.493 48.6113 394.493 46.9433L394.612 31.1565C394.612 29.3098 393.541 28.1779 391.279 27.7609L366.4 27.5822C365.091 27.5822 364.376 29.7864 364.376 34.2543Z" fill="#FAFAFA"/>
<path d="M407.111 8.5189L459.607 9.76993C459.964 9.8295 460.143 10.0678 460.143 10.4252L456.988 140.472C456.988 140.889 456.81 141.128 456.393 141.128L403.897 139.877C403.54 139.877 403.362 139.638 403.362 139.221L406.516 9.11463C406.576 8.69762 406.754 8.5189 407.111 8.5189ZM413.361 33.182L413.123 43.5477C413.063 46.3476 413.123 47.7773 413.361 47.7773C413.063 50.1602 412.944 52.1857 412.885 53.9133L411.337 117.18C411.278 119.801 412.23 121.111 414.135 121.171L424.193 121.409C426.157 121.469 427.11 120.516 427.169 118.55L427.229 116.286C427.229 115.631 427.169 115.333 426.931 115.333C427.169 114.558 427.288 114.141 427.288 114.022C427.348 111.937 427.526 109.673 427.764 107.231C427.645 104.193 427.586 101.274 427.645 98.4737C427.883 97.6993 428.002 97.2823 428.002 97.1631H428.3C428.955 97.1631 430.145 102.525 431.812 113.129C432.228 118.788 433.538 121.588 435.8 121.647L446.513 121.886C448.477 121.945 449.429 120.754 449.489 118.371L449.548 115.452C449.548 115.035 449.37 113.963 448.953 112.175C449.429 111.341 449.787 109.793 450.025 107.648L449.608 99.1886C449.906 96.9248 450.025 94.4228 450.084 91.742L450.144 90.4314C450.203 89.1804 450.322 88.4059 450.501 88.1676C450.322 86.9762 450.203 86.023 450.263 85.2486L450.62 70.9511C450.679 69.4618 450.798 68.2108 451.036 67.0789C450.858 65.947 450.798 64.6364 450.798 63.2067L451.155 48.6113C451.155 48.1348 451.275 47.7177 451.513 47.3007C451.334 46.9433 451.215 46.4667 451.215 45.9901L451.334 41.4626C451.394 39.6159 451.513 37.7095 451.81 35.6245C451.87 32.1693 450.858 30.3821 448.715 30.3821H447.763C446.215 30.7991 445.382 30.9778 445.144 30.9778H444.846C444.132 30.3225 443.061 29.9651 441.632 29.9055C440.085 30.7395 438.359 31.4544 436.395 32.0501C435.919 33.182 435.561 35.9819 435.204 40.4499C435.561 44.203 435.68 46.4667 435.68 47.3007C435.383 49.9815 435.264 51.59 435.264 52.1857L435.561 54.4495C435.323 54.8665 435.204 55.2239 435.204 55.4026H434.907C434.312 55.4026 433.24 51.7091 431.633 44.2625C431.693 41.2839 430.74 36.6968 428.717 30.5608C428.479 30.5608 428.181 30.4417 427.764 30.2034L426.455 30.5012C425.681 30.0247 424.788 29.7864 423.896 29.7864C423.717 29.7864 422.884 29.8459 421.277 30.0247C420.503 29.5481 419.61 29.3098 418.718 29.3098L416.456 29.2502C414.432 29.3098 413.42 30.5608 413.361 33.182ZM442.109 50.756H442.763C443.18 50.8155 443.418 51.0538 443.418 51.4113V51.7091C443.418 52.841 443.061 53.4963 442.406 53.6154H442.109C441.692 53.6154 441.454 53.3772 441.454 52.9601L441.513 51.3517C441.513 50.9347 441.751 50.6964 442.109 50.756Z" fill="#FAFAFA"/>
<path d="M457.107 2.79992L504.187 1.66804C504.544 1.72761 504.723 1.9659 504.723 2.32334L508.056 141.485C508.056 141.962 507.877 142.2 507.58 142.2L460.5 143.332C460.143 143.332 459.964 143.094 459.964 142.677L456.631 3.51479C456.691 3.03821 456.81 2.79992 457.107 2.79992ZM464.25 31.4544V32.4671C464.428 41.0456 464.726 48.9092 465.142 56.0579C464.964 59.4536 464.964 62.4918 465.023 65.113C465.321 68.3299 465.619 70.0575 465.857 70.2958C465.44 71.9638 465.262 74.6446 465.381 78.2785C465.44 80.4827 465.678 85.5464 466.095 93.5292L465.738 94.244C465.976 94.661 466.095 95.0781 466.095 95.6142L466.154 98.4141L465.857 100.499C466.095 100.976 466.214 101.274 466.214 101.512C466.214 102.108 466.154 103.001 465.916 104.312C465.916 104.908 466.095 106.635 466.392 109.495C466.214 112.89 466.154 115.214 466.214 116.465C466.511 120.635 467.345 122.66 468.773 122.66L470.142 122.601C471.987 122.541 474.189 122.362 476.749 122.124L477.463 122.482L478.832 122.124C479.427 122.124 480.32 122.184 481.629 122.422C488.117 122.005 491.331 121.528 491.331 121.171L496.866 121.707C498.473 121.647 499.187 118.431 499.068 111.937C498.83 110.746 498.652 109.554 498.652 108.482L498.533 104.669C498.533 104.431 498.652 104.312 498.89 104.312C498.83 100.618 497.58 98.7716 495.319 98.8311L492.878 98.8907C491.688 98.8907 489.724 99.0694 486.986 99.3673L485.915 97.9971L485.617 85.1294C485.558 83.5209 486.569 82.6869 488.653 82.6274L493.831 82.5082C495.438 81.6742 496.211 79.6487 496.092 76.5509C496.033 75.1212 495.735 72.2021 495.2 67.9129C495.378 66.4832 495.497 64.8151 495.438 63.0279C495.14 62.1939 494.545 61.3599 493.652 60.645C492.819 60.8833 492.402 61.0025 492.283 61.0025C490.26 60.5855 488.831 60.4067 488.117 60.4067L485.677 60.8237L484.962 59.811L484.903 56.7132C484.367 53.3772 484.07 51.5304 484.07 51.173C484.605 48.1348 485.319 46.6454 486.034 46.5859L491.212 46.4667L493.295 46.7646C494.902 46.3476 495.676 45.2753 495.676 43.6072L495.259 27.2843C495.2 25.378 494.009 24.2461 491.688 23.8887L466.035 24.4844C464.726 24.4844 464.131 26.8077 464.25 31.4544Z" fill="#FAFAFA"/>
<path d="M509.008 10.6635L558.528 12.0337C558.885 12.0933 559.064 12.3316 559.064 12.689L555.552 140.472C555.552 140.889 555.374 141.128 554.957 141.068L505.437 139.698C505.08 139.698 504.901 139.46 504.901 139.043L508.472 11.3188C508.532 10.8422 508.711 10.6635 509.008 10.6635ZM512.817 55.4026C513.055 61.479 513.889 66.7214 515.258 71.0703C516.031 73.8106 518.769 77.6232 523.531 82.4486C524.602 82.9848 525.614 84.0571 526.626 85.7251C526.626 86.3209 525.733 86.7379 524.066 86.9166C520.852 86.6187 517.876 86.44 515.139 86.3804H514.841C513.829 86.3804 513.055 87.8102 512.46 90.7888L512.758 91.4441C512.758 91.6824 512.639 91.742 512.46 91.742L512.698 94.0058L512.579 98.4737C512.282 110.15 515.674 117.894 522.757 121.707C522.995 121.707 524.186 122.065 526.209 122.779L529.066 122.541C529.066 122.839 529.364 123.196 530.018 123.494L532.875 123.554C538.292 123.673 543.232 120.516 547.815 114.082C549.184 110.567 549.957 106.099 550.076 100.737L550.314 91.5037C550.612 80.7806 545.672 71.7256 535.435 64.279L534.542 62.9684C535.137 61.8961 536.863 61.4195 539.661 61.5386L542.22 61.5982C543.946 61.6578 545.851 61.8961 547.934 62.3726C549.422 61.6578 550.195 60.7642 550.255 59.5727C550.672 45.1561 549.065 37.0542 545.493 35.2075C543.41 31.9905 537.815 30.2034 528.769 29.9651C525.257 29.8459 521.626 31.8714 517.757 36.0415C514.901 39.9733 513.353 45.8114 513.115 53.4367C512.996 53.4963 512.877 54.1516 512.817 55.4026ZM532.459 48.9688C533.113 49.2071 533.411 49.8624 533.351 50.9347L533.232 54.4495C533.113 58.2621 532.756 60.1684 532.102 60.1684C531.09 59.0366 530.614 57.309 530.673 55.0452L530.733 52.1857C530.792 50.4581 531.387 49.3858 532.459 48.9688ZM530.673 90.074C531.923 90.1335 532.697 93.2909 532.935 99.7247V100.023C532.578 103.18 531.983 104.788 531.209 104.788H530.554C529.721 104.788 529.304 102.823 529.423 99.0099L529.542 94.244C529.661 91.3846 530.018 90.0144 530.673 90.074Z" fill="#FAFAFA"/>
<path d="M554.124 3.2765L607.989 1.19145C608.405 1.25103 608.584 1.42975 608.643 1.84675L614 140.949C614 141.426 613.821 141.664 613.405 141.664L559.54 143.749C559.123 143.749 558.945 143.57 558.885 143.094L553.529 3.99137C553.588 3.57436 553.767 3.33607 554.124 3.2765ZM561.445 51.6495C562.159 58.2025 563.409 63.862 565.194 68.5086C566.206 71.4277 569.48 75.3595 575.015 80.304C576.205 80.7806 577.396 81.9125 578.586 83.6401C578.586 84.2954 577.693 84.772 575.848 85.1294C572.337 85.0103 569.063 85.0698 566.147 85.1294H565.789C564.718 85.189 563.944 86.7974 563.528 90.074L563.885 90.7293C563.885 90.9675 563.766 91.0867 563.528 91.0867L563.944 93.5292L564.123 98.4141C564.599 111.103 568.884 119.324 576.86 122.958C577.158 122.958 578.408 123.256 580.729 123.852L583.824 123.375C583.824 123.733 584.181 124.03 584.895 124.388L587.99 124.269C593.883 124.03 599.061 120.277 603.525 112.89C604.775 108.959 605.251 104.074 605.013 98.2354L604.596 88.1676C604.12 76.4914 598.108 67.0193 586.502 59.6919L585.431 58.3217C586.026 57.1302 587.871 56.4749 590.907 56.3558L593.704 56.2367C595.549 56.1771 597.632 56.2962 599.953 56.7132C601.56 55.8196 602.334 54.7473 602.275 53.4963C601.68 37.8287 599.358 29.1311 595.37 27.3439C592.871 23.9482 586.681 22.4589 576.8 22.8759C572.991 22.9951 569.123 25.4971 565.313 30.2629C562.456 34.7905 561.206 41.1647 561.564 49.5049C561.504 49.5645 561.385 50.2794 561.445 51.6495ZM582.276 43.1902C582.99 43.3689 583.348 44.0838 583.407 45.2157L583.526 49.0283C583.705 53.1984 583.407 55.2835 582.752 55.2835C581.562 54.092 580.907 52.3048 580.788 49.8028L580.669 46.705C580.61 44.9178 581.145 43.7859 582.276 43.1902ZM583.348 87.9889C584.717 87.9293 585.788 91.3846 586.502 98.295V98.6524C586.324 102.108 585.847 103.895 584.955 103.895H584.24C583.288 103.954 582.752 101.869 582.633 97.6993L582.455 92.5164C582.336 89.5378 582.633 87.9889 583.348 87.9889Z" fill="#FAFAFA"/>
</g>
<defs>
<clipPath id="clip0_107_5">
<rect width="614" height="145" fill="white"/>
</clipPath>
</defs>
</svg>
