<svg width="31" height="20" viewBox="0 0 31 20" fill="none" xmlns="http://www.w3.org/2000/svg">
<path d="M30.1817 0.114258H23.6559V3.90767H30.1817V0.114258Z" fill="#FAFAFA"/>
<path d="M30.1817 5.39722H23.6559V9.19064H30.1817V5.39722Z" fill="#FAFAFA"/>
<path d="M30.1817 10.6777H23.6559V14.4712H30.1817V10.6777Z" fill="#FAFAFA"/>
<path d="M6.52571 15.9607H0V19.7541H6.52571V15.9607Z" fill="#FAFAFA"/>
<path d="M14.4102 15.9607H7.88446V19.7541H14.4102V15.9607Z" fill="#FAFAFA"/>
<path d="M22.2972 15.9607H15.7715V19.7541H22.2972V15.9607Z" fill="#FAFAFA"/>
<path d="M30.1817 15.9607H23.6559V19.7541H30.1817V15.9607Z" fill="#FAFAFA"/>
<path d="M22.2972 10.6777H15.7715V14.4712H22.2972V10.6777Z" fill="#FAFAFA"/>
<path d="M14.4102 10.6777H7.88446V14.4712H14.4102V10.6777Z" fill="#FAFAFA"/>
<path d="M14.4102 5.39722H7.88446V9.19064H14.4102V5.39722Z" fill="#FAFAFA"/>
</svg>
