<svg width="30" height="31" viewBox="0 0 30 31" fill="none" xmlns="http://www.w3.org/2000/svg">
<path fill-rule="evenodd" clip-rule="evenodd" d="M0.13269 15.6577C0.13269 7.36885 6.79302 0.64209 15 0.64209C23.2071 0.64209 29.8674 7.36885 29.8674 15.6577C29.8674 23.9466 23.2071 30.6733 15 30.6733C6.79302 30.6733 0.13269 23.9466 0.13269 15.6577ZM23.7346 13.914C24.0044 14.0714 24.1962 14.1501 24.5079 14.1501C25.2393 14.1501 25.8988 13.5628 25.8988 12.7394C25.8988 12.0189 25.593 11.6435 25.1254 11.371C21.7743 9.39718 17.1882 8.47687 12.8119 8.47687C10.2401 8.47687 7.8781 8.77355 5.7679 9.39718C5.22836 9.55461 4.72478 10.0208 4.72478 10.8443C4.72478 11.6495 5.33027 12.2732 6.1216 12.2732C6.36157 12.2732 6.58904 12.2058 6.78314 12.1483C6.82179 12.1368 6.85911 12.1258 6.89494 12.1157C11.8347 10.7232 19.4662 11.3407 23.7346 13.914ZM21.9921 18.5529C22.1814 18.6568 22.3763 18.7638 22.6495 18.7638C23.303 18.7638 23.8065 18.237 23.8125 17.5831C23.8125 17.0564 23.6207 16.681 23.1351 16.3903C20.1736 14.6103 16.4148 13.6355 12.5241 13.6355C10.0303 13.6355 8.32772 13.9866 6.66114 14.4589C6.04366 14.6345 5.73193 15.0644 5.73193 15.7122C5.73193 16.3601 6.25348 16.8868 6.89494 16.8868C7.09336 16.8868 7.23016 16.8442 7.40314 16.7904C7.46534 16.771 7.53222 16.7502 7.60833 16.7294C12.5781 15.3671 18.1653 16.2693 21.9122 18.5095C21.9388 18.5237 21.9654 18.5383 21.9921 18.5529ZM20.3954 22.5177C20.6292 22.6569 20.7851 22.7357 21.0369 22.7357C21.5225 22.7357 21.9481 22.3542 21.9481 21.8032C21.9481 21.2523 21.7323 21.0403 21.3666 20.8042C17.0863 18.2189 12.0685 18.122 7.15871 19.2179C6.7091 19.3148 6.34341 19.6114 6.34341 20.2351C6.34341 20.7255 6.7091 21.1917 7.2906 21.1917C7.42712 21.1917 7.64497 21.132 7.84545 21.077C7.90027 21.062 7.95379 21.0473 8.00399 21.0343C12.3023 20.1443 16.6546 20.2411 20.3954 22.5177Z" fill="#FAFAFA"/>
</svg>
