<svg width="31" height="32" viewBox="0 0 31 32" fill="none" xmlns="http://www.w3.org/2000/svg">
<path fill-rule="evenodd" clip-rule="evenodd" d="M15.3164 31.0094C23.7021 31.0094 30.5 24.2115 30.5 15.8258C30.5 7.44005 23.7021 0.64209 15.3164 0.64209C6.93065 0.64209 0.13269 7.44005 0.13269 15.8258C0.13269 24.2115 6.93065 31.0094 15.3164 31.0094ZM15.3164 8.57901C19.3021 8.57901 22.5631 11.8228 22.5631 15.8258C22.5631 19.8287 19.3193 23.0725 15.3164 23.0725C11.3134 23.0725 8.06961 19.8287 8.06961 15.8258C8.06961 11.8228 11.3306 8.57901 15.3164 8.57901ZM15.3164 7.88884C10.9338 7.88884 7.37944 11.4432 7.37944 15.8258C7.37944 20.2083 10.9338 23.7627 15.3164 23.7627C19.6989 23.7627 23.2533 20.2083 23.2533 15.8258C23.2533 11.4432 19.6989 7.88884 15.3164 7.88884ZM19.2848 15.6532L12.5557 19.7942V11.8573L19.2848 15.6532Z" fill="#FAFAFA"/>
</svg>
