<svg width="236" height="56" viewBox="0 0 236 56" fill="none" xmlns="http://www.w3.org/2000/svg">
<g clip-path="url(#clip0_123_15729)">
<path d="M0.137263 7.44415L15.6708 7.15039C15.7623 7.17299 15.8309 7.24078 15.8309 7.35376L16.5859 47.3722C16.5859 47.5078 16.5401 47.5756 16.4486 47.5756L0.915083 47.8694C0.823575 47.8694 0.754944 47.8016 0.754944 47.666L0 7.64751C0.0228771 7.51194 0.0686313 7.44415 0.137263 7.44415ZM1.80729 14.9462L1.92167 21.0247C1.94455 22.1319 1.99031 23.1939 2.08181 24.2108C2.01318 24.5949 2.01318 25.4988 2.03606 26.8998L2.05894 27.894C2.05894 28.4589 2.10469 29.069 2.1962 29.6792L2.10469 30.2893C2.21908 31.7806 2.28771 32.5489 2.35634 32.5715C2.28771 33.0234 2.26483 33.385 2.26483 33.6787L2.31059 35.5768C2.35634 38.2884 3.43156 40.2317 5.55913 41.4068C5.74215 41.4068 6.2912 41.6327 7.1834 42.0847C7.45793 42.1524 7.73245 42.175 7.9841 42.175H8.07561C10.4777 42.1298 12.1249 41.3616 12.9942 39.8928C13.772 38.8533 14.1609 37.4524 14.138 35.6672C14.3439 35.3509 14.4354 34.8086 14.4126 34.0629L14.2753 26.7868C14.2524 25.7022 14.2067 24.7079 14.1152 23.804C14.1838 23.3973 14.1838 22.5386 14.1609 21.2054L14.1152 18.8102C14.1152 18.5391 14.0008 17.9741 13.772 17.1155C13.955 16.2568 14.0465 15.6241 14.0465 15.2174V15.014C14.0237 13.8842 13.6805 13.3192 12.9942 13.3418H12.9027C12.6739 13.3418 12.5138 13.387 12.3994 13.4548L11.8961 13.3644C10.8209 13.5226 10.2261 13.5904 10.0888 13.5904C9.83715 13.4548 9.56262 13.4096 9.26522 13.4096C8.71617 13.4096 8.37301 13.7938 8.2815 14.5169C8.30438 15.1722 8.2815 16.9121 8.2815 19.7141C8.2815 19.8722 8.32726 20.1434 8.39589 20.505C8.32726 20.8665 8.30438 21.1828 8.30438 21.4088C8.32726 22.4483 8.41877 23.804 8.57891 25.4988L8.41877 28.1878L8.64754 29.7921C8.60178 31.3965 8.55603 32.4359 8.51027 32.8879C8.57891 33.2946 8.62466 33.7691 8.64754 34.2888V34.3792C8.67041 35.5769 8.55603 36.187 8.2815 36.187L8.07561 35.8932L8.02986 33.4076C8.00698 31.7806 7.91547 29.4532 7.80108 26.4252L7.89259 26.0185L7.66382 24.1204C7.75533 22.3353 7.80109 20.0982 7.73245 17.4318L7.70958 16.1438L7.59519 15.5563C7.66382 15.4433 7.6867 15.3077 7.6867 15.1496C7.66382 14.1553 7.32067 13.6582 6.65723 13.6808C6.17681 13.6808 5.94804 13.6356 5.94804 13.5L5.51338 13.5678C5.42187 13.5678 5.01008 13.5452 4.30089 13.5C4.23226 13.5 4.20938 13.5452 4.20938 13.613L3.70609 13.5226H3.08841C2.21908 13.5452 1.78441 14.0197 1.80729 14.9462Z" fill="#1E1E1E"/>
<path d="M15.0074 8.91287L29.786 8.0542C29.9003 8.0542 29.9461 8.12199 29.969 8.23497L32.2109 45.8808C32.2109 46.0164 32.1652 46.0616 32.0508 46.0842L17.2722 46.9429C17.1578 46.9429 17.1121 46.8977 17.0892 46.7621L14.8472 9.11624C14.8472 8.98066 14.9159 8.93547 15.0074 8.91287ZM17.2722 21.9737C17.501 23.7588 17.8899 25.2728 18.3932 26.5156C18.6906 27.3065 19.6057 28.3459 21.1613 29.6565C21.4816 29.7695 21.8247 30.0632 22.1679 30.5378C22.1679 30.7185 21.9391 30.8541 21.4358 30.9671C20.475 30.9671 19.5828 30.9897 18.7592 31.0349H18.6677C18.3703 31.0575 18.1644 31.5094 18.0729 32.3907L18.1873 32.5715C18.1873 32.6392 18.1644 32.6618 18.0958 32.6618L18.233 33.3171L18.3017 34.6277C18.5076 38.0624 19.72 40.2543 21.9391 41.2033C22.0078 41.2033 22.3738 41.2711 22.9915 41.4293L23.8379 41.2937C23.8379 41.3841 23.9523 41.4745 24.1353 41.5649L24.9818 41.5197C26.606 41.4293 28.0016 40.3673 29.1912 38.3562C29.5114 37.2941 29.6258 35.9609 29.5343 34.3792L29.3742 31.645C29.1912 28.4815 27.4754 25.9507 24.2497 24.03L23.9523 23.6684C24.1124 23.3521 24.6157 23.1487 25.4393 23.1035L26.1943 23.0583C26.6976 23.0357 27.2695 23.0583 27.91 23.1487C28.3447 22.9001 28.5506 22.6064 28.5277 22.2674C28.2761 18.0193 27.5898 15.6692 26.4917 15.2173C25.7825 14.3134 24.0896 13.9519 21.3672 14.1101C20.3149 14.1779 19.2854 14.8558 18.2559 16.1664C17.501 17.4092 17.2036 19.1491 17.318 21.4088C17.2722 21.4088 17.2722 21.6121 17.2722 21.9737ZM22.9686 19.5784C23.1516 19.6236 23.266 19.8044 23.2889 20.1208L23.3575 21.1602C23.4261 22.29 23.3575 22.8549 23.1745 22.8775C22.8313 22.5612 22.6483 22.0867 22.6026 21.4088L22.5568 20.5727C22.5111 20.053 22.6483 19.7366 22.9686 19.5784ZM23.4948 31.6902C23.8837 31.6676 24.1811 32.5941 24.4327 34.4696V34.56C24.4099 35.509 24.2726 35.9835 24.0438 36.0061H23.8608C23.6092 36.0287 23.449 35.4638 23.3804 34.334L23.2889 32.933C23.2202 32.1195 23.3117 31.7128 23.4948 31.6902Z" fill="#1E1E1E"/>
<path d="M30.8841 6.56299H45.0907C45.2051 6.58558 45.2509 6.65337 45.2509 6.76636V48.2536C45.2509 48.3892 45.2051 48.457 45.0907 48.457H30.8841C30.7697 48.457 30.7239 48.3892 30.7239 48.2536V6.76636C30.7468 6.63078 30.7926 6.56299 30.8841 6.56299ZM32.8286 15.1497V15.466C32.8286 18.0194 32.8744 20.3695 32.943 22.4936C32.8744 23.5104 32.8286 24.4143 32.8286 25.1825C32.8973 26.1542 32.9659 26.6739 33.0345 26.7417C32.8973 27.2388 32.8286 28.0297 32.8286 29.1143C32.8286 29.7696 32.8744 31.2836 32.943 33.6563L32.8286 33.8596C32.8973 33.9726 32.943 34.1082 32.943 34.2664V35.1024L32.8286 35.7125C32.8973 35.8481 32.943 35.9611 32.943 36.0289C32.943 36.2097 32.8973 36.4808 32.8286 36.865C32.8286 37.0457 32.8744 37.5655 32.943 38.4241C32.8744 39.441 32.8286 40.1415 32.8286 40.503C32.8744 41.7458 33.126 42.3559 33.5607 42.3559H33.9725C34.5215 42.3559 35.185 42.3107 35.9628 42.2429L36.1687 42.3559L36.5805 42.2429C36.7635 42.2429 37.038 42.2881 37.4269 42.3559C39.3715 42.2655 40.3552 42.1752 40.3552 42.0396L42.0252 42.2429C42.5056 42.2429 42.7573 41.2713 42.7573 39.3506C42.6887 38.989 42.6429 38.6501 42.6429 38.3111V37.1813C42.6429 37.1135 42.6887 37.0683 42.7573 37.0683C42.7573 35.9611 42.4141 35.4188 41.7049 35.4188H40.9729C40.6068 35.4188 40.012 35.464 39.1885 35.5318L38.8682 35.125V31.3062C38.8682 30.8317 39.1885 30.5831 39.8061 30.5831H41.3847C41.8651 30.3346 42.1167 29.7471 42.1167 28.8206C42.1167 28.3913 42.0481 27.5326 41.9108 26.2446C41.9795 25.8153 42.0252 25.3407 42.0252 24.7984C41.9337 24.5498 41.7736 24.3013 41.499 24.0753C41.2474 24.1431 41.1101 24.1883 41.0873 24.1883C40.4696 24.0527 40.0578 23.9849 39.829 23.9849L39.0969 24.0979L38.8911 23.7364V22.8099C38.7538 21.8157 38.6852 21.2507 38.6852 21.1604C38.8682 20.2565 39.097 19.8046 39.3028 19.8046H40.8814L41.499 19.9176C41.9795 19.8046 42.2311 19.4882 42.2311 18.9911V14.1102C42.2311 13.5453 41.888 13.2064 41.1788 13.0708H33.4234C33.0345 13.0708 32.8286 13.7713 32.8286 15.1497Z" fill="#1E1E1E"/>
<path d="M45.6398 0.19043H66.7782C66.9383 0.213026 67.007 0.303412 67.007 0.461588V54.5577C67.007 54.7385 66.9383 54.8289 66.7782 54.8289H45.6398C45.4796 54.8289 45.411 54.7385 45.411 54.5577V0.461588C45.411 0.280816 45.5025 0.19043 45.6398 0.19043ZM48.4765 36.3449C48.568 36.6613 48.6138 37.1584 48.6138 37.8363C48.1334 38.4916 47.7216 40.9546 47.3784 45.2479V45.6547C47.5615 46.5585 47.836 47.0105 48.202 47.0105H51.0617L51.8852 46.8749C52.0454 46.9653 52.2741 47.0105 52.5715 47.0105H52.8461C54.5847 46.5585 55.4312 45.9258 55.4312 45.1124C55.6142 43.621 55.7057 42.4686 55.7057 41.6099V41.0676C55.7743 40.5253 55.9116 40.2541 56.1175 40.2541H56.6665C56.8038 40.2541 56.9868 40.4349 57.2156 40.7964V41.7455C57.2156 45.2479 57.6274 47.0105 58.4509 47.0105H61.8596C63.9643 47.0105 64.9938 46.3778 64.9938 45.1124C65.1768 44.5249 65.2683 44.1181 65.2683 43.8922L64.4447 38.2204C63.7127 29.5885 63.0264 22.8096 62.3858 17.8609C61.9511 11.8277 61.4936 8.82231 61.0132 8.82231H52.1598C51.0617 8.82231 50.5126 9.77137 50.5126 11.6469C49.5975 21.2956 48.9341 29.5208 48.4765 36.3449ZM56.392 28.1198H56.5293C56.7123 29.2496 56.8038 30.1986 56.8038 30.9443V31.7578C56.8038 31.8934 56.6665 32.029 56.392 32.1645H56.2547C56.1175 32.1645 55.9802 32.029 55.843 31.7578C55.9345 29.3174 56.1175 28.1198 56.392 28.1198Z" fill="#1E1E1E"/>
<path d="M67.2815 2.15625H94.7798C94.9628 2.17885 95.0772 2.26923 95.0772 2.40481V53.4956C95.0772 53.6764 94.9857 53.7442 94.7798 53.7442H67.2815C67.0985 53.7442 66.9841 53.6538 66.9841 53.4956V2.40481C67.0299 2.24664 67.1214 2.15625 67.2815 2.15625ZM67.8306 11.8954L68.2195 13.6805V15.6012L70.4157 43.1238C70.4157 45.2479 70.8961 46.3099 71.8341 46.3099H76.4781C78.5371 46.1291 79.5665 45.6094 79.5665 44.7733C79.8182 43.4853 80.0012 41.8584 80.0927 39.9377C80.0927 39.8925 80.0469 39.3502 79.9554 38.2881C80.1842 37.9944 80.4587 37.0227 80.7333 35.3506H80.9849C81.2366 36.5482 81.5111 38.8756 81.7627 42.3555C82.0144 44.9993 82.5406 46.3099 83.3184 46.3099H83.57C84.4622 46.3099 85.5603 46.1743 86.933 45.9258C87.3676 45.9258 87.5735 46.0162 87.5735 46.1743L88.2141 46.0387C88.9004 46.2195 89.335 46.2873 89.4952 46.2873H90.0214C90.8907 46.2873 91.3025 45.1801 91.3025 42.9656L91.5541 40.6834V40.5478L91.3025 39.6665C91.8058 38.3333 92.698 29.0235 94.002 11.7598C94.002 11.0593 93.6131 10.5396 92.8352 10.2232C92.6522 10.2232 92.4692 10.2684 92.3091 10.3588C91.4169 10.2684 90.7305 10.2232 90.2501 10.2232C89.724 10.2232 89.1749 10.404 88.5801 10.7429C88.2598 10.5622 87.9167 10.4944 87.5506 10.4944C86.933 10.6751 86.544 12.2343 86.3839 15.2171H86.2466C86.2466 15.3074 86.2924 15.3526 86.3839 15.3526C86.0407 19.1263 85.7891 21.6345 85.6061 22.8773H85.3544V22.3576C85.1714 18.5613 84.9198 15.8724 84.5766 14.3358C84.5766 11.692 84.1877 10.3814 83.4099 10.3814C82.0373 10.291 81.2137 10.2458 80.962 10.2458C80.8705 10.2458 80.7561 10.291 80.5731 10.3814L79.7953 10.2458H78.2397C77.2102 10.2458 76.684 11.8502 76.684 15.0815C76.684 15.1493 76.4324 17.5219 75.9062 22.222H75.6546C75.3114 15.2622 75.0597 11.5112 74.8767 11.0141C74.5336 10.4944 74.0074 10.2458 73.3211 10.2458H70.0954C69.9124 10.2458 69.7294 10.291 69.5692 10.3814C69.4091 10.291 69.249 10.2458 69.0431 10.2458H68.6542C68.128 10.6074 67.8306 11.1497 67.8306 11.8954Z" fill="#1E1E1E"/>
<path d="M96.1524 0.00976562L117.291 0.393907C117.451 0.416504 117.52 0.50689 117.52 0.665066L116.536 54.7386C116.536 54.9194 116.444 55.0098 116.284 55.0098L95.1458 54.6256C94.9856 54.6256 94.917 54.5352 94.917 54.3545L95.9007 0.280924C95.9236 0.100152 96.0151 0.00976562 96.1524 0.00976562ZM98.3257 36.2094C98.4172 36.5258 98.4401 37.0229 98.4401 37.7008C97.9596 38.3335 97.5021 40.8191 97.0674 45.0899V45.4966C97.2276 46.4005 97.5021 46.8524 97.8681 46.8524L100.728 46.8976L101.551 46.7846C101.711 46.875 101.94 46.9202 102.238 46.9428H102.512C104.251 46.5135 105.12 45.9034 105.143 45.0899C105.349 43.5985 105.463 42.4461 105.486 41.5874V41.0451C105.555 40.5028 105.715 40.2316 105.921 40.2542H106.47C106.607 40.2542 106.79 40.435 106.996 40.7965L106.973 41.7456C106.905 45.2481 107.293 47.0106 108.117 47.0332L111.526 47.101C113.63 47.1462 114.683 46.5361 114.706 45.2707C114.889 44.6831 115.003 44.2764 115.003 44.073L114.294 38.4013C113.722 29.7468 113.173 22.9679 112.624 17.9966C112.304 11.9633 111.892 8.9354 111.411 8.9354L102.535 8.77723C101.437 8.75463 100.888 9.68109 100.842 11.5792C99.7212 21.1827 98.8976 29.4079 98.3257 36.2094ZM106.378 28.1199H106.516C106.676 29.2497 106.744 30.1988 106.744 30.967L106.722 31.7805C106.722 31.9161 106.584 32.0517 106.31 32.1873H106.173C106.035 32.1873 105.898 32.0517 105.761 31.7805C105.921 29.3175 106.127 28.1199 106.378 28.1199Z" fill="#1E1E1E"/>
<path d="M116.238 1.7497L136.256 1.22998C136.416 1.25258 136.485 1.32037 136.485 1.47854L137.834 52.9761C137.834 53.1568 137.766 53.2246 137.606 53.2472L117.588 53.767C117.428 53.767 117.359 53.6766 117.359 53.5184L116.033 2.02086C116.033 1.84009 116.124 1.7723 116.238 1.7497ZM118.549 11.4662L118.572 12.2345C118.595 13.5451 118.663 14.3586 118.755 14.6749C118.686 15.737 118.686 16.7538 118.709 17.7707L118.846 23.2842C118.869 23.9621 118.961 24.7304 119.167 25.5891C119.007 26.4477 118.961 27.216 118.961 27.9165L119.029 30.2214C119.052 31.1478 119.121 31.9161 119.212 32.5262L119.121 33.6786C119.304 37.2489 119.396 39.4859 119.418 40.3446C119.396 42.6721 119.396 44.0956 119.396 44.5928C119.51 45.4514 119.899 45.8582 120.608 45.8356C121.088 45.813 121.683 45.7678 122.415 45.6548L123.719 45.7452L124.634 45.587C125.092 45.6548 125.527 45.7 125.938 45.6774C126.419 45.6548 126.716 45.3158 126.831 44.638C126.808 43.7341 126.739 42.8076 126.625 41.8134C126.625 38.3561 126.648 36.0965 126.716 35.0118C126.625 34.4695 126.556 33.882 126.533 33.2267C126.487 31.419 126.602 30.5377 126.853 30.5151C127.151 30.5151 127.494 31.7805 127.86 34.3339C127.7 34.944 127.631 35.4638 127.631 35.8705L127.769 41.2711C127.791 41.949 127.769 42.8528 127.7 43.9601C127.723 45.0673 128.226 45.6096 129.164 45.587L133.579 45.474C134.357 45.4514 134.746 44.9769 134.723 44.0278L134.7 43.3951C134.677 42.0845 134.609 41.2711 134.517 40.9547C134.586 39.9153 134.586 38.8758 134.563 37.859L134.426 32.8426C134.357 30.2665 133.739 28.3232 132.573 26.99V26.6059C133.671 25.4309 134.174 23.5328 134.105 20.9116L134.037 18.2226C133.922 13.997 132.687 11.2628 130.308 9.97484C130.308 9.79407 127.952 9.6133 123.262 9.38733L119.67 9.50032C118.892 9.52291 118.526 10.1782 118.549 11.4662ZM126.373 17.2961H126.51C126.853 17.2961 127.036 17.8836 127.082 19.0813L127.151 21.2731C127.174 22.29 127.014 22.8097 126.67 22.8323C126.533 22.8323 126.396 22.7193 126.282 22.4481L126.167 18.9909C126.167 18.6971 126.099 18.313 126.007 17.8384C126.121 17.4769 126.259 17.3187 126.373 17.2961Z" fill="#1E1E1E"/>
<path d="M137.743 2.40479L155.29 2.54036C155.427 2.56296 155.473 2.65335 155.473 2.78893L155.038 53.9701C155.038 54.1509 154.969 54.2187 154.832 54.2187L137.285 54.0831C137.148 54.0831 137.102 53.9927 137.102 53.8345L137.537 2.65335C137.583 2.47257 137.629 2.40479 137.743 2.40479ZM140.054 13.0026V13.3867C140.031 16.5276 140.054 19.42 140.099 22.0638C140.008 23.3292 139.939 24.4138 139.939 25.3855C140.008 26.5831 140.099 27.2158 140.191 27.3062C140.008 27.9163 139.916 28.9105 139.916 30.2437C139.916 31.0572 139.939 32.9327 140.008 35.8703L139.87 36.1188C139.962 36.277 140.008 36.4352 139.985 36.6386V37.6554L139.848 38.4237C139.939 38.6045 139.985 38.7174 139.985 38.8078C139.985 39.0112 139.939 39.3501 139.848 39.8247C139.848 40.028 139.893 40.6833 139.962 41.7454C139.87 43.0108 139.825 43.8469 139.802 44.2988C139.848 45.8353 140.145 46.6036 140.694 46.6036H141.22C141.907 46.6036 142.73 46.581 143.668 46.4906L143.92 46.6262L144.446 46.5132C144.652 46.5132 144.995 46.5584 145.475 46.6488C147.877 46.5584 149.09 46.4455 149.09 46.2873L151.149 46.5584C151.744 46.5584 152.064 45.3834 152.087 42.9882C151.995 42.5363 151.972 42.1069 151.972 41.7002L151.995 40.2992C151.995 40.2088 152.041 40.1636 152.133 40.1636C152.133 38.8078 151.721 38.1073 150.851 38.1073H149.936C149.479 38.1073 148.747 38.1299 147.74 38.2203L147.351 37.7006L147.397 32.9779C147.397 32.3904 147.786 32.0966 148.564 32.0966L150.508 32.1192C151.103 31.8255 151.423 31.1024 151.423 29.95C151.423 29.4077 151.355 28.3456 151.195 26.7639C151.286 26.2441 151.332 25.634 151.332 24.9787C151.218 24.6624 151.012 24.3686 150.691 24.0749C150.394 24.1653 150.211 24.1879 150.165 24.1879C149.41 24.0071 148.907 23.9167 148.61 23.9167L147.694 24.0297L147.443 23.6455V22.4931C147.283 21.2503 147.191 20.5724 147.191 20.4594C147.443 19.3522 147.694 18.8099 147.992 18.8099L149.936 18.8325L150.714 18.9681C151.309 18.8325 151.629 18.4483 151.629 17.8156L151.675 11.8275C151.675 11.1271 151.263 10.6977 150.394 10.5395L140.831 10.4718C140.328 10.4718 140.054 11.3078 140.054 13.0026Z" fill="#1E1E1E"/>
<path d="M156.479 3.24121L176.657 3.71574C176.794 3.73833 176.863 3.82872 176.863 3.9643L175.65 53.2926C175.65 53.4507 175.582 53.5411 175.421 53.5411L155.244 53.0666C155.107 53.0666 155.038 52.9762 155.038 52.818L156.25 3.46718C156.273 3.309 156.342 3.24121 156.479 3.24121ZM158.881 12.5962L158.79 16.528C158.767 17.59 158.79 18.1323 158.881 18.1323C158.767 19.0362 158.721 19.8045 158.698 20.4598L158.103 44.4573C158.081 45.4516 158.447 45.9487 159.179 45.9713L163.045 46.0617C163.8 46.0843 164.166 45.7227 164.189 44.977L164.212 44.1184C164.212 43.8698 164.189 43.7568 164.097 43.7568C164.189 43.4631 164.235 43.3049 164.235 43.2597C164.257 42.4688 164.326 41.6102 164.418 40.6837C164.372 39.5313 164.349 38.424 164.372 37.362C164.463 37.0682 164.509 36.9101 164.509 36.8649H164.623C164.875 36.8649 165.333 38.8986 165.973 42.9207C166.133 45.0674 166.637 46.1295 167.506 46.1521L171.624 46.2424C172.379 46.265 172.745 45.8131 172.768 44.9092L172.791 43.802C172.791 43.6438 172.722 43.2371 172.562 42.5592C172.745 42.2429 172.882 41.6553 172.974 40.8419L172.813 37.6332C172.928 36.7745 172.974 35.8254 172.996 34.8086L173.019 34.3115C173.042 33.8369 173.088 33.5432 173.157 33.4528C173.088 33.0009 173.042 32.6393 173.065 32.3456L173.202 26.9224C173.225 26.3575 173.271 25.883 173.363 25.4536C173.294 25.0243 173.271 24.5272 173.271 23.9848L173.408 18.4487C173.408 18.2679 173.454 18.1097 173.546 17.9516C173.477 17.816 173.431 17.6352 173.431 17.4544L173.477 15.7371C173.5 15.0366 173.546 14.3135 173.66 13.5226C173.683 12.212 173.294 11.5341 172.47 11.5341H172.104C171.509 11.6923 171.189 11.7601 171.098 11.7601H170.983C170.709 11.5115 170.297 11.376 169.748 11.3534C169.153 11.6697 168.49 11.9409 167.735 12.1668C167.552 12.5962 167.414 13.6582 167.277 15.353C167.414 16.7765 167.46 17.6352 167.46 17.9516C167.346 18.9684 167.3 19.5785 167.3 19.8045L167.414 20.6632C167.323 20.8213 167.277 20.9569 167.277 21.0247H167.163C166.934 21.0247 166.522 19.6237 165.905 16.7991C165.927 15.6693 165.561 13.9294 164.784 11.6019C164.692 11.6019 164.578 11.5567 164.418 11.4664L163.914 11.5793C163.617 11.3986 163.274 11.3082 162.931 11.3082C162.862 11.3082 162.542 11.3308 161.924 11.3986C161.627 11.2178 161.283 11.1274 160.94 11.1274L160.071 11.1048C159.293 11.1274 158.904 11.6019 158.881 12.5962ZM169.931 19.2622H170.183C170.343 19.2848 170.434 19.3751 170.434 19.5107V19.6237C170.434 20.053 170.297 20.3016 170.045 20.3468H169.931C169.771 20.3468 169.679 20.2564 169.679 20.0982L169.702 19.4881C169.702 19.33 169.794 19.2396 169.931 19.2622Z" fill="#1E1E1E"/>
<path d="M175.696 1.07191L193.792 0.642578C193.929 0.665175 193.998 0.755561 193.998 0.89114L195.279 53.6767C195.279 53.8574 195.21 53.9478 195.096 53.9478L177 54.3772C176.863 54.3772 176.794 54.2868 176.794 54.1286L175.513 1.34307C175.536 1.1623 175.582 1.07191 175.696 1.07191ZM178.441 11.9409V12.325C178.51 15.5789 178.624 18.5616 178.784 21.2732C178.716 22.5612 178.716 23.7137 178.739 24.7079C178.853 25.9281 178.967 26.5834 179.059 26.6738C178.899 27.3065 178.83 28.3233 178.876 29.7017C178.899 30.5378 178.99 32.4585 179.15 35.4865L179.013 35.7576C179.105 35.9158 179.15 36.074 179.15 36.2773L179.173 37.3394L179.059 38.1302C179.15 38.311 179.196 38.424 179.196 38.5144C179.196 38.7404 179.173 39.0793 179.082 39.5764C179.082 39.8024 179.15 40.4577 179.265 41.5423C179.196 42.8303 179.173 43.7116 179.196 44.1861C179.311 45.7679 179.631 46.5362 180.18 46.5362L180.706 46.5136C181.415 46.491 182.262 46.4232 183.245 46.3328L183.52 46.4684L184.046 46.3328C184.275 46.3328 184.618 46.3554 185.121 46.4458C187.615 46.2876 188.85 46.1068 188.85 45.9713L190.978 46.1746C191.596 46.152 191.87 44.9318 191.824 42.4688C191.733 42.0169 191.664 41.5649 191.664 41.1582L191.618 39.712C191.618 39.6216 191.664 39.5764 191.756 39.5764C191.733 38.1754 191.252 37.4749 190.383 37.4975L189.445 37.5201C188.988 37.5201 188.233 37.5879 187.18 37.7009L186.769 37.1812L186.654 32.3003C186.631 31.6902 187.02 31.3739 187.821 31.3513L189.811 31.3061C190.429 30.9897 190.726 30.2215 190.681 29.0464C190.658 28.5041 190.543 27.3969 190.337 25.7699C190.406 25.2276 190.452 24.5949 190.429 23.917C190.314 23.6007 190.086 23.2843 189.743 23.0132C189.422 23.1035 189.262 23.1487 189.216 23.1487C188.439 22.9906 187.889 22.9228 187.615 22.9228L186.677 23.0809L186.402 22.6968L186.38 21.5218C186.174 20.2564 186.059 19.5559 186.059 19.4203C186.265 18.2679 186.54 17.703 186.814 17.6804L188.805 17.6352L189.605 17.7482C190.223 17.59 190.52 17.1833 190.52 16.5505L190.36 10.3591C190.337 9.636 189.88 9.20667 188.988 9.07109L179.128 9.29706C178.624 9.29706 178.396 10.1783 178.441 11.9409Z" fill="#1E1E1E"/>
<path d="M195.645 4.05469L214.679 4.57441C214.816 4.597 214.884 4.68739 214.884 4.82297L213.535 53.2926C213.535 53.4507 213.466 53.5411 213.306 53.5185L194.272 52.9988C194.135 52.9988 194.066 52.9084 194.066 52.7502L195.439 4.30325C195.462 4.12248 195.53 4.05469 195.645 4.05469ZM197.109 21.0247C197.2 23.3295 197.521 25.318 198.047 26.9676C198.344 28.007 199.397 29.4532 201.227 31.2835C201.639 31.4869 202.028 31.8936 202.416 32.5263C202.416 32.7523 202.073 32.9105 201.433 32.9783C200.197 32.8653 199.053 32.7975 198.001 32.7749H197.887C197.498 32.7749 197.2 33.3172 196.972 34.447L197.086 34.6956C197.086 34.786 197.04 34.8086 196.972 34.8086L197.063 35.6673L197.017 37.362C196.903 41.7909 198.207 44.7285 200.929 46.1747C201.021 46.1747 201.478 46.3102 202.256 46.5814L203.354 46.491C203.354 46.604 203.469 46.7396 203.72 46.8526L204.819 46.8751C206.9 46.9203 208.799 45.7227 210.561 43.2823C211.087 41.9491 211.384 40.2544 211.43 38.2207L211.521 34.7182C211.636 30.6508 209.737 27.2162 205.802 24.3916L205.459 23.8945C205.688 23.4877 206.351 23.3069 207.427 23.3521L208.41 23.3747C209.074 23.3973 209.806 23.4877 210.606 23.6685C211.178 23.3973 211.476 23.0584 211.499 22.6065C211.659 17.1381 211.041 14.065 209.668 13.3645C208.868 12.1443 206.717 11.4664 203.24 11.376C201.89 11.3308 200.495 12.0991 199.008 13.6808C197.91 15.1722 197.315 17.3867 197.223 20.279C197.178 20.3016 197.132 20.5502 197.109 21.0247ZM204.658 18.5843C204.91 18.6747 205.024 18.9232 205.002 19.33L204.956 20.6632C204.91 22.1093 204.773 22.8324 204.521 22.8324C204.132 22.4031 203.949 21.7478 203.972 20.8891L203.995 19.8045C204.018 19.1492 204.247 18.7424 204.658 18.5843ZM203.972 34.1759C204.452 34.1985 204.75 35.3961 204.841 37.8365V37.9495C204.704 39.1471 204.475 39.7572 204.178 39.7572H203.926C203.606 39.7572 203.446 39.0115 203.492 37.5654L203.537 35.7576C203.583 34.673 203.72 34.1533 203.972 34.1759Z" fill="#1E1E1E"/>
<path d="M212.986 1.25279L233.689 0.461914C233.85 0.484511 233.918 0.5523 233.941 0.710476L236 53.4734C236 53.6542 235.931 53.7446 235.771 53.7446L215.067 54.5355C214.907 54.5355 214.839 54.4677 214.816 54.2869L212.757 1.52395C212.78 1.36578 212.848 1.27539 212.986 1.25279ZM215.8 19.6012C216.074 22.0868 216.554 24.2335 217.241 25.996C217.63 27.1032 218.888 28.5946 221.016 30.4701C221.473 30.6509 221.931 31.0802 222.388 31.7355C222.388 31.9841 222.045 32.1649 221.336 32.3005C219.986 32.2553 218.728 32.2779 217.607 32.3005H217.47C217.058 32.323 216.76 32.9332 216.6 34.176L216.738 34.4245C216.738 34.5149 216.692 34.5601 216.6 34.5601L216.76 35.4866L216.829 37.3395C217.012 42.1525 218.659 45.2709 221.725 46.6493C221.839 46.6493 222.32 46.7622 223.212 46.9882L224.401 46.8074C224.401 46.943 224.539 47.056 224.813 47.1916L226.003 47.1464C228.268 47.056 230.258 45.6324 231.974 42.8304C232.454 41.3391 232.637 39.4862 232.546 37.2717L232.385 33.4529C232.202 29.024 229.892 25.4311 225.431 22.6517L225.019 22.132C225.248 21.6801 225.957 21.4315 227.124 21.3863L228.199 21.3411C228.908 21.3185 229.709 21.3637 230.601 21.5219C231.219 21.1829 231.516 20.7762 231.493 20.3017C231.264 14.3588 230.372 11.0597 228.839 10.3818C227.879 9.0938 225.499 8.52888 221.702 8.68706C220.238 8.73225 218.751 9.68131 217.287 11.489C216.188 13.2064 215.708 15.6242 215.845 18.7877C215.822 18.8103 215.777 19.0815 215.8 19.6012ZM223.807 16.3925C224.081 16.4603 224.218 16.7314 224.241 17.1608L224.287 18.6069C224.356 20.1887 224.241 20.9796 223.99 20.9796C223.532 20.5277 223.28 19.8498 223.235 18.9007L223.189 17.7257C223.166 17.0478 223.372 16.6184 223.807 16.3925ZM224.218 33.3851C224.744 33.3625 225.156 34.6731 225.431 37.2943V37.4299C225.362 38.7405 225.179 39.4184 224.836 39.4184H224.561C224.195 39.441 223.99 38.6501 223.944 37.0683L223.875 35.1024C223.829 33.9726 223.944 33.3851 224.218 33.3851Z" fill="#1E1E1E"/>
</g>
<defs>
<clipPath id="clip0_123_15729">
<rect width="236" height="55" fill="white" transform="translate(0 0.00976562)"/>
</clipPath>
</defs>
</svg>
